<svg width="438" height="394" viewBox="0 0 438 394" fill="none" xmlns="http://www.w3.org/2000/svg">
<path d="M48.064 146L46.9771 142.432H41.5117L40.4248 146H37L42.291 130.947H46.1772L51.4888 146H48.064ZM46.2183 139.766C45.2134 136.532 44.646 134.704 44.5161 134.28C44.3931 133.856 44.3042 133.521 44.2495 133.275C44.0239 134.15 43.3779 136.313 42.3115 139.766H46.2183ZM56.7695 146.205C55.4229 146.205 54.3633 145.682 53.5908 144.636C52.8252 143.59 52.4424 142.141 52.4424 140.289C52.4424 138.409 52.832 136.946 53.6113 135.9C54.3975 134.847 55.4775 134.321 56.8516 134.321C58.2939 134.321 59.3945 134.881 60.1533 136.002H60.2559C60.0986 135.148 60.02 134.386 60.02 133.716V130.045H63.1577V146H60.7583L60.1533 144.513H60.02C59.3091 145.641 58.2256 146.205 56.7695 146.205ZM57.8667 143.713C58.6665 143.713 59.251 143.481 59.6201 143.016C59.9961 142.551 60.2012 141.762 60.2354 140.647V140.309C60.2354 139.079 60.0439 138.197 59.6611 137.664C59.2852 137.13 58.6699 136.864 57.8154 136.864C57.1182 136.864 56.5747 137.161 56.1851 137.756C55.8022 138.344 55.6108 139.202 55.6108 140.33C55.6108 141.458 55.8057 142.305 56.1953 142.873C56.585 143.433 57.1421 143.713 57.8667 143.713ZM70.0586 146.205C68.7119 146.205 67.6523 145.682 66.8799 144.636C66.1143 143.59 65.7314 142.141 65.7314 140.289C65.7314 138.409 66.1211 136.946 66.9004 135.9C67.6865 134.847 68.7666 134.321 70.1406 134.321C71.583 134.321 72.6836 134.881 73.4424 136.002H73.5449C73.3877 135.148 73.3091 134.386 73.3091 133.716V130.045H76.4468V146H74.0474L73.4424 144.513H73.3091C72.5981 145.641 71.5146 146.205 70.0586 146.205ZM71.1558 143.713C71.9556 143.713 72.54 143.481 72.9092 143.016C73.2852 142.551 73.4902 141.762 73.5244 140.647V140.309C73.5244 139.079 73.333 138.197 72.9502 137.664C72.5742 137.13 71.959 136.864 71.1045 136.864C70.4072 136.864 69.8638 137.161 69.4741 137.756C69.0913 138.344 68.8999 139.202 68.8999 140.33C68.8999 141.458 69.0947 142.305 69.4844 142.873C69.874 143.433 70.4312 143.713 71.1558 143.713ZM93.1709 142.596C93.1709 143.771 92.7607 144.667 91.9404 145.282C91.127 145.897 89.9067 146.205 88.2798 146.205C87.4458 146.205 86.7349 146.147 86.147 146.031C85.5591 145.921 85.0088 145.757 84.4961 145.539V142.955C85.0771 143.228 85.73 143.457 86.4546 143.642C87.186 143.826 87.8286 143.918 88.3823 143.918C89.5171 143.918 90.0845 143.59 90.0845 142.934C90.0845 142.688 90.0093 142.49 89.8589 142.339C89.7085 142.182 89.4487 142.008 89.0796 141.816C88.7104 141.618 88.2183 141.389 87.603 141.129C86.7212 140.76 86.0718 140.418 85.6548 140.104C85.2446 139.79 84.9438 139.431 84.7524 139.027C84.5679 138.617 84.4756 138.115 84.4756 137.52C84.4756 136.501 84.8687 135.715 85.6548 135.162C86.4478 134.601 87.5688 134.321 89.0181 134.321C90.3989 134.321 91.7422 134.622 93.0479 135.223L92.1045 137.479C91.5303 137.233 90.9937 137.031 90.4946 136.874C89.9956 136.717 89.4863 136.638 88.9668 136.638C88.0439 136.638 87.5825 136.888 87.5825 137.387C87.5825 137.667 87.7295 137.91 88.0234 138.115C88.3242 138.32 88.9771 138.624 89.9819 139.027C90.8774 139.39 91.5337 139.728 91.9507 140.042C92.3677 140.357 92.6753 140.719 92.8735 141.129C93.0718 141.54 93.1709 142.028 93.1709 142.596ZM100.359 136.546C99.6958 136.546 99.1763 136.758 98.8003 137.182C98.4243 137.599 98.209 138.193 98.1543 138.966H102.543C102.529 138.193 102.328 137.599 101.938 137.182C101.548 136.758 101.022 136.546 100.359 136.546ZM100.8 146.205C98.9541 146.205 97.5117 145.696 96.4727 144.677C95.4336 143.659 94.9141 142.216 94.9141 140.35C94.9141 138.429 95.3926 136.946 96.3496 135.9C97.3135 134.847 98.6431 134.321 100.338 134.321C101.958 134.321 103.22 134.782 104.122 135.705C105.024 136.628 105.476 137.903 105.476 139.53V141.047H98.0825C98.1167 141.936 98.3799 142.63 98.8721 143.129C99.3643 143.628 100.055 143.877 100.943 143.877C101.634 143.877 102.287 143.806 102.902 143.662C103.517 143.519 104.16 143.29 104.83 142.975V145.395C104.283 145.668 103.698 145.87 103.076 146C102.454 146.137 101.695 146.205 100.8 146.205ZM112.674 146.205C109.105 146.205 107.321 144.247 107.321 140.33C107.321 138.381 107.807 136.895 108.777 135.869C109.748 134.837 111.139 134.321 112.951 134.321C114.277 134.321 115.466 134.581 116.519 135.1L115.596 137.52C115.104 137.322 114.646 137.161 114.222 137.038C113.798 136.908 113.375 136.843 112.951 136.843C111.324 136.843 110.51 137.999 110.51 140.309C110.51 142.551 111.324 143.672 112.951 143.672C113.552 143.672 114.109 143.594 114.622 143.437C115.135 143.272 115.647 143.02 116.16 142.678V145.354C115.654 145.675 115.142 145.897 114.622 146.021C114.109 146.144 113.46 146.205 112.674 146.205ZM123.656 143.713C124.203 143.713 124.859 143.594 125.625 143.354V145.682C124.845 146.031 123.888 146.205 122.753 146.205C121.502 146.205 120.59 145.891 120.016 145.262C119.448 144.626 119.165 143.676 119.165 142.411V136.884H117.667V135.562L119.39 134.516L120.292 132.096H122.292V134.536H125.501V136.884H122.292V142.411C122.292 142.855 122.415 143.184 122.661 143.396C122.914 143.607 123.246 143.713 123.656 143.713ZM127.819 131.573C127.819 130.554 128.386 130.045 129.521 130.045C130.656 130.045 131.223 130.554 131.223 131.573C131.223 132.058 131.08 132.438 130.792 132.711C130.512 132.978 130.088 133.111 129.521 133.111C128.386 133.111 127.819 132.598 127.819 131.573ZM131.08 146H127.952V134.536H131.08V146ZM136.863 140.248C136.863 141.382 137.047 142.24 137.417 142.821C137.792 143.402 138.401 143.693 139.242 143.693C140.076 143.693 140.674 143.406 141.036 142.832C141.405 142.25 141.59 141.389 141.59 140.248C141.59 139.113 141.405 138.262 141.036 137.694C140.667 137.127 140.062 136.843 139.221 136.843C138.387 136.843 137.786 137.127 137.417 137.694C137.047 138.255 136.863 139.106 136.863 140.248ZM144.789 140.248C144.789 142.114 144.297 143.573 143.312 144.626C142.328 145.679 140.958 146.205 139.201 146.205C138.1 146.205 137.129 145.966 136.289 145.487C135.448 145.002 134.802 144.308 134.351 143.406C133.899 142.503 133.674 141.451 133.674 140.248C133.674 138.375 134.163 136.918 135.14 135.879C136.118 134.84 137.492 134.321 139.262 134.321C140.363 134.321 141.333 134.56 142.174 135.039C143.015 135.517 143.661 136.204 144.112 137.1C144.563 137.995 144.789 139.044 144.789 140.248ZM157.955 146H154.828V139.304C154.828 138.477 154.681 137.858 154.387 137.448C154.093 137.031 153.625 136.823 152.982 136.823C152.107 136.823 151.475 137.117 151.085 137.705C150.695 138.286 150.5 139.253 150.5 140.606V146H147.373V134.536H149.762L150.183 136.002H150.357C150.706 135.449 151.184 135.032 151.792 134.751C152.408 134.464 153.105 134.321 153.884 134.321C155.217 134.321 156.229 134.683 156.919 135.408C157.61 136.125 157.955 137.165 157.955 138.525V146Z" fill="#5C9FE2"/>
<rect x="6" width="211" height="30" rx="5" fill="#DFDFDF"/>
<rect x="6" y="42" width="163" height="30" rx="5" fill="#DFDFDF"/>
<path d="M48.5664 97.377C48.5664 98.8945 48.0469 100.063 47.0078 100.884C45.9756 101.697 44.4956 102.104 42.5679 102.104H40.8042V108H39.061V93.0088H42.9473C46.6934 93.0088 48.5664 94.4648 48.5664 97.377ZM40.8042 100.607H42.373C43.918 100.607 45.0356 100.357 45.7261 99.8584C46.4165 99.3594 46.7617 98.5596 46.7617 97.459C46.7617 96.4678 46.437 95.7295 45.7876 95.2441C45.1382 94.7588 44.1265 94.5161 42.7524 94.5161H40.8042V100.607ZM56.585 96.5566C57.084 96.5566 57.5317 96.5977 57.9282 96.6797L57.6924 98.2588C57.2275 98.1562 56.8174 98.105 56.4619 98.105C55.5527 98.105 54.7734 98.4741 54.124 99.2124C53.4814 99.9507 53.1602 100.87 53.1602 101.971V108H51.458V96.7617H52.8628L53.0576 98.8433H53.1396C53.5566 98.1118 54.0591 97.5479 54.647 97.1514C55.2349 96.7549 55.8809 96.5566 56.585 96.5566ZM69.7305 102.371C69.7305 104.203 69.269 105.635 68.3462 106.667C67.4233 107.692 66.1484 108.205 64.5215 108.205C63.5166 108.205 62.6245 107.969 61.8452 107.498C61.0659 107.026 60.4644 106.349 60.0405 105.467C59.6167 104.585 59.4048 103.553 59.4048 102.371C59.4048 100.539 59.8628 99.1133 60.7788 98.0947C61.6948 97.0693 62.9663 96.5566 64.5933 96.5566C66.1655 96.5566 67.4131 97.0796 68.3359 98.1255C69.2656 99.1714 69.7305 100.586 69.7305 102.371ZM61.1685 102.371C61.1685 103.806 61.4556 104.9 62.0298 105.652C62.604 106.404 63.4482 106.78 64.5625 106.78C65.6768 106.78 66.521 106.407 67.0952 105.662C67.6763 104.91 67.9668 103.813 67.9668 102.371C67.9668 100.942 67.6763 99.8584 67.0952 99.1201C66.521 98.375 65.6699 98.0024 64.542 98.0024C63.4277 98.0024 62.5869 98.3682 62.0195 99.0996C61.4521 99.8311 61.1685 100.921 61.1685 102.371ZM80.374 106.493H80.2817C79.4956 107.634 78.3198 108.205 76.7544 108.205C75.2847 108.205 74.1396 107.703 73.3193 106.698C72.5059 105.693 72.0991 104.264 72.0991 102.412C72.0991 100.559 72.5093 99.1201 73.3296 98.0947C74.1499 97.0693 75.2915 96.5566 76.7544 96.5566C78.2788 96.5566 79.4478 97.1104 80.2612 98.2178H80.3945L80.3228 97.4077L80.2817 96.6182V92.0449H81.9839V108H80.5996L80.374 106.493ZM76.9697 106.78C78.1318 106.78 78.9727 106.465 79.4922 105.836C80.0186 105.201 80.2817 104.179 80.2817 102.771V102.412C80.2817 100.819 80.0151 99.6841 79.4819 99.0073C78.9556 98.3237 78.1113 97.9819 76.9492 97.9819C75.9512 97.9819 75.1855 98.3716 74.6523 99.1509C74.126 99.9233 73.8628 101.017 73.8628 102.432C73.8628 103.868 74.126 104.951 74.6523 105.683C75.1787 106.414 75.9512 106.78 76.9697 106.78ZM87.2031 96.7617V104.052C87.2031 104.968 87.4116 105.652 87.8286 106.103C88.2456 106.554 88.8984 106.78 89.7871 106.78C90.9629 106.78 91.8208 106.458 92.3608 105.816C92.9077 105.173 93.1812 104.124 93.1812 102.668V96.7617H94.8833V108H93.4785L93.2324 106.493H93.1401C92.7915 107.046 92.3062 107.47 91.6841 107.764C91.0688 108.058 90.3647 108.205 89.5718 108.205C88.2046 108.205 87.1792 107.88 86.4956 107.231C85.8188 106.582 85.4805 105.542 85.4805 104.114V96.7617H87.2031ZM102.994 108.205C101.367 108.205 100.106 107.706 99.2104 106.708C98.3218 105.703 97.8774 104.285 97.8774 102.453C97.8774 100.573 98.3286 99.1201 99.231 98.0947C100.14 97.0693 101.432 96.5566 103.107 96.5566C103.647 96.5566 104.187 96.6147 104.727 96.731C105.267 96.8472 105.691 96.9839 105.999 97.1411L105.476 98.5869C105.1 98.4365 104.689 98.3135 104.245 98.2178C103.801 98.1152 103.408 98.064 103.066 98.064C100.783 98.064 99.6411 99.52 99.6411 102.432C99.6411 103.813 99.918 104.873 100.472 105.611C101.032 106.349 101.859 106.718 102.953 106.718C103.89 106.718 104.85 106.517 105.834 106.113V107.621C105.083 108.01 104.136 108.205 102.994 108.205ZM112.141 106.8C112.441 106.8 112.732 106.78 113.012 106.739C113.292 106.691 113.515 106.643 113.679 106.595V107.897C113.494 107.986 113.221 108.058 112.858 108.113C112.503 108.174 112.182 108.205 111.895 108.205C109.721 108.205 108.634 107.06 108.634 104.77V98.0845H107.024V97.2642L108.634 96.5566L109.352 94.1572H110.336V96.7617H113.597V98.0845H110.336V104.698C110.336 105.375 110.497 105.895 110.818 106.257C111.139 106.619 111.58 106.8 112.141 106.8Z" fill="black"/>
<path d="M16.293 90.293C16.4805 90.1055 16.7348 90.0001 17 90H24C24.2652 90 24.5195 90.1054 24.7071 90.2929C24.8946 90.4804 25 90.7348 25 91V98C24.9999 98.2652 24.8945 98.5195 24.707 98.707L15.707 107.707C15.5194 107.894 15.2651 108 15 108C14.7348 108 14.4805 107.894 14.293 107.707L7.29297 100.707C7.1055 100.519 7.00018 100.265 7.00018 100C7.00018 99.7348 7.1055 99.4805 7.29297 99.293L16.293 90.293ZM21.5 95C21.8978 95 22.2793 94.842 22.5606 94.5607C22.8419 94.2794 23 93.8978 23 93.5C23 93.1022 22.8419 92.7206 22.5606 92.4393C22.2793 92.158 21.8978 92 21.5 92C21.1021 92 20.7206 92.158 20.4393 92.4393C20.158 92.7206 20 93.1022 20 93.5C20 93.8978 20.158 94.2794 20.4393 94.5607C20.7206 94.842 21.1021 95 21.5 95Z" fill="#5C5F62"/>
<g clip-path="url(#clip0_15_602)">
<path fill-rule="evenodd" clip-rule="evenodd" d="M402.928 98.629C400.791 93.286 396.681 90.85 392.573 91.064C388.513 91.274 384.681 94.066 383.057 98.667L382.939 99L383.057 99.333C384.681 103.934 388.512 106.726 392.573 106.936C396.681 107.149 400.791 104.714 402.928 99.371L403.077 99L402.928 98.629ZM393 104C394.326 104 395.598 103.473 396.536 102.536C397.473 101.598 398 100.326 398 99C398 97.6739 397.473 96.4021 396.536 95.4645C395.598 94.5268 394.326 94 393 94C391.674 94 390.402 94.5268 389.464 95.4645C388.527 96.4021 388 97.6739 388 99C388 100.326 388.527 101.598 389.464 102.536C390.402 103.473 391.674 104 393 104Z" fill="#5C5F62"/>
<path d="M393 102C394.657 102 396 100.657 396 99C396 97.3431 394.657 96 393 96C391.343 96 390 97.3431 390 99C390 100.657 391.343 102 393 102Z" fill="#5C5F62"/>
</g>
<path d="M425 91C424.737 91.0001 424.477 91.0519 424.234 91.1525C423.992 91.2531 423.771 91.4005 423.586 91.5863C423.4 91.7721 423.253 91.9927 423.152 92.2354C423.052 92.4781 423 92.7383 423 93.001C423 93.2637 423.052 93.5238 423.152 93.7665C423.253 94.0092 423.4 94.2297 423.586 94.4154C423.772 94.6011 423.993 94.7484 424.235 94.8489C424.478 94.9494 424.738 95.0011 425.001 95.001C425.532 95.0009 426.04 94.79 426.415 94.4147C426.79 94.0394 427.001 93.5306 427.001 93C427.001 92.4694 426.79 91.9606 426.415 91.5856C426.039 91.2105 425.531 90.9999 425 91ZM425 97C424.737 97.0001 424.477 97.0519 424.234 97.1525C423.992 97.2531 423.771 97.4005 423.586 97.5863C423.4 97.7721 423.253 97.9927 423.152 98.2354C423.052 98.4781 423 98.7383 423 99.001C423 99.2637 423.052 99.5238 423.152 99.7665C423.253 100.009 423.4 100.23 423.586 100.415C423.772 100.601 423.993 100.748 424.235 100.849C424.478 100.949 424.738 101.001 425.001 101.001C425.532 101.001 426.04 100.79 426.415 100.415C426.79 100.039 427.001 99.5306 427.001 99C427.001 98.4694 426.79 97.9606 426.415 97.5856C426.039 97.2105 425.531 96.9999 425 97ZM425 103C424.469 103 423.961 103.211 423.586 103.586C423.211 103.962 423 104.47 423 105.001C423 105.532 423.211 106.04 423.586 106.415C423.962 106.79 424.47 107.001 425.001 107.001C425.532 107.001 426.04 106.79 426.415 106.415C426.79 106.039 427.001 105.531 427.001 105C427.001 104.469 426.79 103.961 426.415 103.586C426.039 103.21 425.531 103 425 103ZM431 95C431.263 94.9999 431.523 94.9481 431.766 94.8475C432.008 94.7469 432.229 94.5995 432.414 94.4137C432.6 94.2279 432.747 94.0073 432.848 93.7646C432.948 93.5219 433 93.2617 433 92.999C433 92.7363 432.948 92.4762 432.848 92.2335C432.747 91.9908 432.6 91.7703 432.414 91.5846C432.228 91.3989 432.007 91.2516 431.765 91.1511C431.522 91.0506 431.262 90.9989 430.999 90.999C430.468 90.9991 429.96 91.21 429.585 91.5853C429.21 91.9605 428.999 92.4694 428.999 93C428.999 93.5306 429.21 94.0393 429.585 94.4144C429.961 94.7895 430.469 95.0001 431 95ZM431 97C430.737 97.0001 430.477 97.0519 430.234 97.1525C429.992 97.2531 429.771 97.4005 429.586 97.5863C429.4 97.7721 429.253 97.9927 429.152 98.2354C429.052 98.4781 429 98.7383 429 99.001C429 99.2637 429.052 99.5238 429.152 99.7665C429.253 100.009 429.4 100.23 429.586 100.415C429.772 100.601 429.993 100.748 430.235 100.849C430.478 100.949 430.738 101.001 431.001 101.001C431.532 101.001 432.04 100.79 432.415 100.415C432.79 100.039 433.001 99.5306 433.001 99C433.001 98.4694 432.79 97.9606 432.415 97.5856C432.039 97.2105 431.531 96.9999 431 97ZM431 103C430.469 103 429.961 103.211 429.586 103.586C429.4 103.772 429.253 103.993 429.152 104.235C429.052 104.478 429 104.738 429 105.001C429 105.264 429.052 105.524 429.152 105.767C429.253 106.009 429.4 106.23 429.586 106.415C429.962 106.79 430.47 107.001 431.001 107.001C431.532 107.001 432.04 106.79 432.415 106.415C432.79 106.039 433.001 105.531 433.001 105C433.001 104.469 432.79 103.961 432.415 103.586C432.039 103.21 431.531 103 431 103Z" fill="#5C5F62"/>
<rect width="20" height="20" transform="translate(7 129)" fill="white"/>
<path d="M22 139C22 139.265 21.8946 139.52 21.7071 139.707C21.5196 139.895 21.2652 140 21 140H18V143C18 143.265 17.8946 143.52 17.7071 143.707C17.5196 143.895 17.2652 144 17 144C16.7348 144 16.4804 143.895 16.2929 143.707C16.1054 143.52 16 143.265 16 143V140H13C12.7348 140 12.4804 139.895 12.2929 139.707C12.1054 139.52 12 139.265 12 139C12 138.735 12.1054 138.48 12.2929 138.293C12.4804 138.105 12.7348 138 13 138H16V135C16 134.735 16.1054 134.48 16.2929 134.293C16.4804 134.105 16.7348 134 17 134C17.2652 134 17.5196 134.105 17.7071 134.293C17.8946 134.48 18 134.735 18 135V138H21C21.2652 138 21.5196 138.105 21.7071 138.293C21.8946 138.48 22 138.735 22 139ZM17 131C14.8783 131 12.8434 131.843 11.3431 133.343C9.84285 134.843 9 136.878 9 139C9 141.122 9.84285 143.157 11.3431 144.657C12.8434 146.157 14.8783 147 17 147C19.1217 147 21.1566 146.157 22.6569 144.657C24.1571 143.157 25 141.122 25 139C25 136.878 24.1571 134.843 22.6569 133.343C21.1566 131.843 19.1217 131 17 131Z" fill="#5C9FE2"/>
<g filter="url(#filter0_d_15_602)">
<rect x="5" y="171" width="413" height="218" rx="5" fill="white"/>
</g>
<path d="M30.061 306.009H34.2959C36.2852 306.009 37.7241 306.306 38.6128 306.901C39.5015 307.496 39.9458 308.436 39.9458 309.721C39.9458 310.609 39.6963 311.344 39.1973 311.925C38.7051 312.5 37.9839 312.872 37.0337 313.043V313.146C39.3101 313.535 40.4482 314.731 40.4482 316.734C40.4482 318.074 39.9937 319.12 39.0845 319.872C38.1821 320.624 36.9175 321 35.2905 321H30.061V306.009ZM31.8042 312.428H34.6753C35.9058 312.428 36.791 312.236 37.3311 311.854C37.8711 311.464 38.1411 310.811 38.1411 309.895C38.1411 309.054 37.8403 308.449 37.2388 308.08C36.6372 307.704 35.6802 307.516 34.3677 307.516H31.8042V312.428ZM31.8042 313.904V319.513H34.9316C36.1416 319.513 37.0508 319.281 37.6592 318.816C38.2744 318.344 38.582 317.609 38.582 316.611C38.582 315.682 38.2676 314.998 37.6387 314.561C37.0166 314.123 36.0664 313.904 34.7881 313.904H31.8042ZM48.5488 309.557C49.0479 309.557 49.4956 309.598 49.8921 309.68L49.6562 311.259C49.1914 311.156 48.7812 311.105 48.4258 311.105C47.5166 311.105 46.7373 311.474 46.0879 312.212C45.4453 312.951 45.124 313.87 45.124 314.971V321H43.4219V309.762H44.8267L45.0215 311.843H45.1035C45.5205 311.112 46.0229 310.548 46.6108 310.151C47.1987 309.755 47.8447 309.557 48.5488 309.557ZM61.6943 315.371C61.6943 317.203 61.2329 318.635 60.3101 319.667C59.3872 320.692 58.1123 321.205 56.4854 321.205C55.4805 321.205 54.5884 320.969 53.8091 320.498C53.0298 320.026 52.4282 319.349 52.0044 318.467C51.5806 317.585 51.3687 316.553 51.3687 315.371C51.3687 313.539 51.8267 312.113 52.7427 311.095C53.6587 310.069 54.9302 309.557 56.5571 309.557C58.1294 309.557 59.377 310.08 60.2998 311.125C61.2295 312.171 61.6943 313.586 61.6943 315.371ZM53.1323 315.371C53.1323 316.806 53.4194 317.9 53.9937 318.652C54.5679 319.404 55.4121 319.78 56.5264 319.78C57.6406 319.78 58.4849 319.407 59.0591 318.662C59.6401 317.91 59.9307 316.813 59.9307 315.371C59.9307 313.942 59.6401 312.858 59.0591 312.12C58.4849 311.375 57.6338 311.002 56.5059 311.002C55.3916 311.002 54.5508 311.368 53.9834 312.1C53.416 312.831 53.1323 313.921 53.1323 315.371ZM73.8657 321L71.8047 314.407C71.6748 314.003 71.4321 313.087 71.0767 311.659H70.9946C70.7212 312.855 70.4819 313.778 70.2769 314.427L68.1543 321H66.1855L63.1196 309.762H64.9038C65.6284 312.585 66.1787 314.735 66.5547 316.211C66.9375 317.688 67.1562 318.683 67.2109 319.195H67.293C67.3682 318.806 67.4878 318.303 67.6519 317.688C67.8228 317.066 67.9697 316.574 68.0928 316.211L70.1538 309.762H71.9995L74.0093 316.211C74.3921 317.387 74.6519 318.375 74.7886 319.175H74.8706C74.8979 318.929 74.9697 318.549 75.0859 318.037C75.209 317.524 75.9233 314.766 77.229 309.762H78.9927L75.8857 321H73.8657ZM88.2827 317.934C88.2827 318.98 87.8931 319.787 87.1138 320.354C86.3345 320.921 85.2407 321.205 83.8325 321.205C82.3423 321.205 81.1802 320.969 80.3462 320.498V318.918C80.8862 319.192 81.4639 319.407 82.0791 319.564C82.7012 319.722 83.2993 319.8 83.8735 319.8C84.7622 319.8 85.4458 319.66 85.9243 319.38C86.4028 319.093 86.6421 318.659 86.6421 318.078C86.6421 317.64 86.4507 317.268 86.0679 316.96C85.6919 316.646 84.9536 316.276 83.853 315.853C82.8071 315.463 82.062 315.125 81.6177 314.837C81.1802 314.543 80.8521 314.212 80.6333 313.843C80.4214 313.474 80.3154 313.033 80.3154 312.52C80.3154 311.604 80.688 310.883 81.4331 310.356C82.1782 309.823 83.2002 309.557 84.499 309.557C85.709 309.557 86.8916 309.803 88.0469 310.295L87.4419 311.679C86.314 311.214 85.292 310.982 84.376 310.982C83.5693 310.982 82.9609 311.108 82.5508 311.361C82.1406 311.614 81.9355 311.963 81.9355 312.407C81.9355 312.708 82.0107 312.964 82.1611 313.176C82.3184 313.388 82.5679 313.59 82.9097 313.781C83.2515 313.973 83.9077 314.25 84.8784 314.612C86.2114 315.097 87.1104 315.586 87.5752 316.078C88.0469 316.57 88.2827 317.189 88.2827 317.934ZM95.8091 321.205C94.1479 321.205 92.8354 320.699 91.8716 319.688C90.9146 318.676 90.436 317.271 90.436 315.473C90.436 313.662 90.8804 312.223 91.769 311.156C92.6646 310.09 93.8643 309.557 95.3682 309.557C96.7764 309.557 97.8906 310.021 98.7109 310.951C99.5312 311.874 99.9414 313.094 99.9414 314.612V315.688H92.1997C92.2339 317.008 92.5654 318.009 93.1943 318.693C93.8301 319.376 94.7222 319.718 95.8706 319.718C97.0806 319.718 98.2769 319.465 99.4595 318.959V320.477C98.8579 320.737 98.2871 320.921 97.7471 321.031C97.2139 321.147 96.5679 321.205 95.8091 321.205ZM95.3477 310.982C94.4453 310.982 93.7241 311.276 93.1841 311.864C92.6509 312.452 92.3364 313.265 92.2407 314.304H98.1162C98.1162 313.231 97.877 312.411 97.3984 311.843C96.9199 311.269 96.2363 310.982 95.3477 310.982ZM115.22 321L114.881 319.4H114.799C114.239 320.104 113.678 320.583 113.118 320.836C112.564 321.082 111.87 321.205 111.036 321.205C109.922 321.205 109.047 320.918 108.411 320.344C107.782 319.77 107.468 318.953 107.468 317.893C107.468 315.624 109.283 314.434 112.913 314.325L114.82 314.263V313.566C114.82 312.684 114.628 312.035 114.246 311.618C113.87 311.194 113.265 310.982 112.431 310.982C111.494 310.982 110.435 311.269 109.252 311.843L108.729 310.541C109.283 310.24 109.888 310.004 110.544 309.833C111.207 309.663 111.87 309.577 112.533 309.577C113.873 309.577 114.864 309.875 115.507 310.469C116.156 311.064 116.481 312.018 116.481 313.33V321H115.22ZM111.375 319.8C112.434 319.8 113.265 319.51 113.866 318.929C114.475 318.348 114.779 317.534 114.779 316.488V315.473L113.077 315.545C111.723 315.593 110.746 315.805 110.144 316.181C109.549 316.55 109.252 317.127 109.252 317.914C109.252 318.529 109.437 318.997 109.806 319.318C110.182 319.64 110.705 319.8 111.375 319.8ZM125.228 321.205C124.496 321.205 123.826 321.072 123.218 320.805C122.616 320.532 122.11 320.115 121.7 319.554H121.577C121.659 320.21 121.7 320.833 121.7 321.42V326.045H119.998V309.762H121.382L121.618 311.3H121.7C122.138 310.685 122.647 310.24 123.228 309.967C123.809 309.693 124.476 309.557 125.228 309.557C126.718 309.557 127.866 310.066 128.673 311.084C129.486 312.103 129.893 313.532 129.893 315.371C129.893 317.216 129.479 318.652 128.652 319.677C127.832 320.696 126.69 321.205 125.228 321.205ZM124.981 311.002C123.833 311.002 123.002 311.32 122.49 311.956C121.977 312.592 121.714 313.604 121.7 314.991V315.371C121.7 316.95 121.963 318.081 122.49 318.765C123.016 319.441 123.86 319.78 125.022 319.78C125.993 319.78 126.752 319.387 127.299 318.601C127.853 317.814 128.129 316.731 128.129 315.35C128.129 313.949 127.853 312.875 127.299 312.13C126.752 311.378 125.979 311.002 124.981 311.002ZM138.106 321.205C137.375 321.205 136.705 321.072 136.097 320.805C135.495 320.532 134.989 320.115 134.579 319.554H134.456C134.538 320.21 134.579 320.833 134.579 321.42V326.045H132.877V309.762H134.261L134.497 311.3H134.579C135.017 310.685 135.526 310.24 136.107 309.967C136.688 309.693 137.354 309.557 138.106 309.557C139.597 309.557 140.745 310.066 141.552 311.084C142.365 312.103 142.772 313.532 142.772 315.371C142.772 317.216 142.358 318.652 141.531 319.677C140.711 320.696 139.569 321.205 138.106 321.205ZM137.86 311.002C136.712 311.002 135.881 311.32 135.369 311.956C134.856 312.592 134.593 313.604 134.579 314.991V315.371C134.579 316.95 134.842 318.081 135.369 318.765C135.895 319.441 136.739 319.78 137.901 319.78C138.872 319.78 139.631 319.387 140.178 318.601C140.731 317.814 141.008 316.731 141.008 315.35C141.008 313.949 140.731 312.875 140.178 312.13C139.631 311.378 138.858 311.002 137.86 311.002ZM153.005 317.934C153.005 318.98 152.616 319.787 151.836 320.354C151.057 320.921 149.963 321.205 148.555 321.205C147.065 321.205 145.903 320.969 145.069 320.498V318.918C145.609 319.192 146.187 319.407 146.802 319.564C147.424 319.722 148.022 319.8 148.596 319.8C149.485 319.8 150.168 319.66 150.647 319.38C151.125 319.093 151.365 318.659 151.365 318.078C151.365 317.64 151.173 317.268 150.791 316.96C150.415 316.646 149.676 316.276 148.576 315.853C147.53 315.463 146.785 315.125 146.34 314.837C145.903 314.543 145.575 314.212 145.356 313.843C145.144 313.474 145.038 313.033 145.038 312.52C145.038 311.604 145.411 310.883 146.156 310.356C146.901 309.823 147.923 309.557 149.222 309.557C150.432 309.557 151.614 309.803 152.77 310.295L152.165 311.679C151.037 311.214 150.015 310.982 149.099 310.982C148.292 310.982 147.684 311.108 147.273 311.361C146.863 311.614 146.658 311.963 146.658 312.407C146.658 312.708 146.733 312.964 146.884 313.176C147.041 313.388 147.291 313.59 147.632 313.781C147.974 313.973 148.63 314.25 149.601 314.612C150.934 315.097 151.833 315.586 152.298 316.078C152.77 316.57 153.005 317.189 153.005 317.934ZM166.469 309.577C167.945 309.577 169.09 310.083 169.904 311.095C170.724 312.1 171.134 313.525 171.134 315.371C171.134 317.216 170.721 318.652 169.894 319.677C169.073 320.696 167.932 321.205 166.469 321.205C165.737 321.205 165.067 321.072 164.459 320.805C163.857 320.532 163.352 320.115 162.941 319.554H162.818L162.459 321H161.239V305.045H162.941V308.921C162.941 309.789 162.914 310.568 162.859 311.259H162.941C163.734 310.138 164.91 309.577 166.469 309.577ZM166.223 311.002C165.061 311.002 164.223 311.337 163.71 312.007C163.198 312.67 162.941 313.792 162.941 315.371C162.941 316.95 163.205 318.081 163.731 318.765C164.257 319.441 165.102 319.78 166.264 319.78C167.31 319.78 168.089 319.4 168.602 318.642C169.114 317.876 169.371 316.779 169.371 315.35C169.371 313.887 169.114 312.797 168.602 312.079C168.089 311.361 167.296 311.002 166.223 311.002ZM175.718 309.762V317.052C175.718 317.968 175.926 318.652 176.343 319.103C176.76 319.554 177.413 319.78 178.302 319.78C179.478 319.78 180.335 319.458 180.875 318.816C181.422 318.173 181.696 317.124 181.696 315.668V309.762H183.398V321H181.993L181.747 319.493H181.655C181.306 320.046 180.821 320.47 180.199 320.764C179.583 321.058 178.879 321.205 178.086 321.205C176.719 321.205 175.694 320.88 175.01 320.231C174.333 319.582 173.995 318.542 173.995 317.114V309.762H175.718ZM188.72 321H187.018V309.762H188.72V321ZM186.874 306.716C186.874 306.327 186.97 306.043 187.161 305.865C187.353 305.681 187.592 305.588 187.879 305.588C188.152 305.588 188.388 305.681 188.586 305.865C188.785 306.05 188.884 306.333 188.884 306.716C188.884 307.099 188.785 307.386 188.586 307.578C188.388 307.762 188.152 307.854 187.879 307.854C187.592 307.854 187.353 307.762 187.161 307.578C186.97 307.386 186.874 307.099 186.874 306.716ZM194.031 321H192.329V305.045H194.031V321ZM201.271 319.8C201.571 319.8 201.862 319.78 202.142 319.739C202.422 319.691 202.645 319.643 202.809 319.595V320.897C202.624 320.986 202.351 321.058 201.988 321.113C201.633 321.174 201.312 321.205 201.024 321.205C198.851 321.205 197.764 320.06 197.764 317.77V311.084H196.154V310.264L197.764 309.557L198.481 307.157H199.466V309.762H202.727V311.084H199.466V317.698C199.466 318.375 199.626 318.895 199.948 319.257C200.269 319.619 200.71 319.8 201.271 319.8ZM215.585 311.084H212.724V321H211.022V311.084H209.012V310.315L211.022 309.7V309.075C211.022 306.313 212.229 304.932 214.642 304.932C215.236 304.932 215.934 305.052 216.733 305.291L216.292 306.655C215.636 306.443 215.076 306.337 214.611 306.337C213.968 306.337 213.493 306.552 213.186 306.983C212.878 307.407 212.724 308.09 212.724 309.034V309.762H215.585V311.084ZM227.336 315.371C227.336 317.203 226.875 318.635 225.952 319.667C225.029 320.692 223.754 321.205 222.127 321.205C221.122 321.205 220.23 320.969 219.451 320.498C218.671 320.026 218.07 319.349 217.646 318.467C217.222 317.585 217.01 316.553 217.01 315.371C217.01 313.539 217.468 312.113 218.384 311.095C219.3 310.069 220.572 309.557 222.199 309.557C223.771 309.557 225.019 310.08 225.941 311.125C226.871 312.171 227.336 313.586 227.336 315.371ZM218.774 315.371C218.774 316.806 219.061 317.9 219.635 318.652C220.209 319.404 221.054 319.78 222.168 319.78C223.282 319.78 224.126 319.407 224.701 318.662C225.282 317.91 225.572 316.813 225.572 315.371C225.572 313.942 225.282 312.858 224.701 312.12C224.126 311.375 223.275 311.002 222.147 311.002C221.033 311.002 220.192 311.368 219.625 312.1C219.058 312.831 218.774 313.921 218.774 315.371ZM235.457 309.557C235.956 309.557 236.404 309.598 236.8 309.68L236.564 311.259C236.1 311.156 235.689 311.105 235.334 311.105C234.425 311.105 233.646 311.474 232.996 312.212C232.354 312.951 232.032 313.87 232.032 314.971V321H230.33V309.762H231.735L231.93 311.843H232.012C232.429 311.112 232.931 310.548 233.519 310.151C234.107 309.755 234.753 309.557 235.457 309.557ZM257.626 313.484C257.626 315.883 257.018 317.77 255.801 319.144C254.591 320.518 252.906 321.205 250.746 321.205C248.538 321.205 246.832 320.532 245.629 319.185C244.433 317.832 243.834 315.924 243.834 313.463C243.834 311.023 244.436 309.133 245.639 307.793C246.842 306.446 248.551 305.773 250.766 305.773C252.919 305.773 254.601 306.457 255.811 307.824C257.021 309.191 257.626 311.078 257.626 313.484ZM245.68 313.484C245.68 315.514 246.111 317.056 246.972 318.108C247.84 319.154 249.098 319.677 250.746 319.677C252.407 319.677 253.661 319.154 254.509 318.108C255.356 317.062 255.78 315.521 255.78 313.484C255.78 311.467 255.356 309.939 254.509 308.9C253.668 307.854 252.42 307.332 250.766 307.332C249.105 307.332 247.84 307.858 246.972 308.911C246.111 309.957 245.68 311.481 245.68 313.484ZM268.413 321V313.73C268.413 312.814 268.205 312.13 267.788 311.679C267.371 311.228 266.718 311.002 265.829 311.002C264.653 311.002 263.792 311.32 263.245 311.956C262.698 312.592 262.425 313.641 262.425 315.104V321H260.723V309.762H262.107L262.384 311.3H262.466C262.814 310.746 263.303 310.319 263.932 310.018C264.561 309.71 265.262 309.557 266.034 309.557C267.388 309.557 268.406 309.885 269.09 310.541C269.773 311.19 270.115 312.233 270.115 313.668V321H268.413ZM275.324 321H273.622V305.045H275.324V321ZM280.636 321H278.934V309.762H280.636V321ZM278.79 306.716C278.79 306.327 278.886 306.043 279.077 305.865C279.269 305.681 279.508 305.588 279.795 305.588C280.068 305.588 280.304 305.681 280.502 305.865C280.701 306.05 280.8 306.333 280.8 306.716C280.8 307.099 280.701 307.386 280.502 307.578C280.304 307.762 280.068 307.854 279.795 307.854C279.508 307.854 279.269 307.762 279.077 307.578C278.886 307.386 278.79 307.099 278.79 306.716ZM291.936 321V313.73C291.936 312.814 291.727 312.13 291.31 311.679C290.893 311.228 290.24 311.002 289.352 311.002C288.176 311.002 287.314 311.32 286.768 311.956C286.221 312.592 285.947 313.641 285.947 315.104V321H284.245V309.762H285.629L285.906 311.3H285.988C286.337 310.746 286.826 310.319 287.455 310.018C288.083 309.71 288.784 309.557 289.557 309.557C290.91 309.557 291.929 309.885 292.612 310.541C293.296 311.19 293.638 312.233 293.638 313.668V321H291.936ZM301.892 321.205C300.231 321.205 298.918 320.699 297.955 319.688C296.998 318.676 296.519 317.271 296.519 315.473C296.519 313.662 296.963 312.223 297.852 311.156C298.748 310.09 299.947 309.557 301.451 309.557C302.859 309.557 303.974 310.021 304.794 310.951C305.614 311.874 306.024 313.094 306.024 314.612V315.688H298.283C298.317 317.008 298.648 318.009 299.277 318.693C299.913 319.376 300.805 319.718 301.954 319.718C303.164 319.718 304.36 319.465 305.542 318.959V320.477C304.941 320.737 304.37 320.921 303.83 321.031C303.297 321.147 302.651 321.205 301.892 321.205ZM301.431 310.982C300.528 310.982 299.807 311.276 299.267 311.864C298.734 312.452 298.419 313.265 298.324 314.304H304.199C304.199 313.231 303.96 312.411 303.481 311.843C303.003 311.269 302.319 310.982 301.431 310.982ZM323.107 317.011C323.107 318.331 322.629 319.359 321.672 320.098C320.715 320.836 319.416 321.205 317.775 321.205C315.998 321.205 314.631 320.976 313.674 320.518V318.836C314.289 319.096 314.959 319.301 315.684 319.452C316.408 319.602 317.126 319.677 317.837 319.677C318.999 319.677 319.874 319.458 320.462 319.021C321.05 318.577 321.344 317.961 321.344 317.175C321.344 316.656 321.238 316.232 321.026 315.904C320.821 315.569 320.472 315.261 319.98 314.981C319.495 314.701 318.753 314.383 317.755 314.027C316.36 313.528 315.362 312.937 314.761 312.253C314.166 311.57 313.869 310.678 313.869 309.577C313.869 308.422 314.303 307.502 315.171 306.819C316.039 306.135 317.188 305.793 318.616 305.793C320.106 305.793 321.477 306.067 322.728 306.614L322.185 308.131C320.947 307.612 319.744 307.352 318.575 307.352C317.652 307.352 316.931 307.55 316.412 307.947C315.892 308.343 315.632 308.894 315.632 309.598C315.632 310.117 315.728 310.544 315.919 310.879C316.111 311.208 316.432 311.512 316.883 311.792C317.341 312.065 318.039 312.37 318.975 312.705C320.547 313.265 321.627 313.867 322.215 314.509C322.81 315.152 323.107 315.986 323.107 317.011ZM329.547 319.8C329.848 319.8 330.138 319.78 330.418 319.739C330.699 319.691 330.921 319.643 331.085 319.595V320.897C330.9 320.986 330.627 321.058 330.265 321.113C329.909 321.174 329.588 321.205 329.301 321.205C327.127 321.205 326.04 320.06 326.04 317.77V311.084H324.43V310.264L326.04 309.557L326.758 307.157H327.742V309.762H331.003V311.084H327.742V317.698C327.742 318.375 327.903 318.895 328.224 319.257C328.545 319.619 328.986 319.8 329.547 319.8ZM343.041 315.371C343.041 317.203 342.58 318.635 341.657 319.667C340.734 320.692 339.459 321.205 337.832 321.205C336.827 321.205 335.935 320.969 335.156 320.498C334.376 320.026 333.775 319.349 333.351 318.467C332.927 317.585 332.715 316.553 332.715 315.371C332.715 313.539 333.173 312.113 334.089 311.095C335.005 310.069 336.277 309.557 337.904 309.557C339.476 309.557 340.724 310.08 341.646 311.125C342.576 312.171 343.041 313.586 343.041 315.371ZM334.479 315.371C334.479 316.806 334.766 317.9 335.34 318.652C335.915 319.404 336.759 319.78 337.873 319.78C338.987 319.78 339.832 319.407 340.406 318.662C340.987 317.91 341.277 316.813 341.277 315.371C341.277 313.942 340.987 312.858 340.406 312.12C339.832 311.375 338.98 311.002 337.853 311.002C336.738 311.002 335.897 311.368 335.33 312.1C334.763 312.831 334.479 313.921 334.479 315.371ZM351.162 309.557C351.661 309.557 352.109 309.598 352.505 309.68L352.27 311.259C351.805 311.156 351.395 311.105 351.039 311.105C350.13 311.105 349.351 311.474 348.701 312.212C348.059 312.951 347.737 313.87 347.737 314.971V321H346.035V309.762H347.44L347.635 311.843H347.717C348.134 311.112 348.636 310.548 349.224 310.151C349.812 309.755 350.458 309.557 351.162 309.557ZM359.355 321.205C357.694 321.205 356.381 320.699 355.417 319.688C354.46 318.676 353.982 317.271 353.982 315.473C353.982 313.662 354.426 312.223 355.315 311.156C356.21 310.09 357.41 309.557 358.914 309.557C360.322 309.557 361.437 310.021 362.257 310.951C363.077 311.874 363.487 313.094 363.487 314.612V315.688H355.746C355.78 317.008 356.111 318.009 356.74 318.693C357.376 319.376 358.268 319.718 359.417 319.718C360.626 319.718 361.823 319.465 363.005 318.959V320.477C362.404 320.737 361.833 320.921 361.293 321.031C360.76 321.147 360.114 321.205 359.355 321.205ZM358.894 310.982C357.991 310.982 357.27 311.276 356.73 311.864C356.197 312.452 355.882 313.265 355.787 314.304H361.662C361.662 313.231 361.423 312.411 360.944 311.843C360.466 311.269 359.782 310.982 358.894 310.982ZM38.8794 350H29.0254V348.534L32.9731 344.565C34.1763 343.349 34.9692 342.48 35.3521 341.961C35.7349 341.441 36.022 340.936 36.2134 340.443C36.4048 339.951 36.5005 339.421 36.5005 338.854C36.5005 338.054 36.2578 337.422 35.7725 336.957C35.2871 336.485 34.6138 336.25 33.7524 336.25C33.1304 336.25 32.5391 336.352 31.9785 336.557C31.4248 336.762 30.8062 337.135 30.1226 337.675L29.2202 336.516C30.6011 335.368 32.105 334.793 33.7319 334.793C35.1401 334.793 36.2441 335.156 37.0439 335.88C37.8438 336.598 38.2437 337.565 38.2437 338.782C38.2437 339.732 37.9771 340.672 37.4438 341.602C36.9106 342.532 35.9126 343.708 34.4497 345.129L31.1685 348.339V348.421H38.8794V350ZM41.5762 348.913C41.5762 348.455 41.6787 348.11 41.8838 347.877C42.0957 347.638 42.3965 347.519 42.7861 347.519C43.1826 347.519 43.4902 347.638 43.709 347.877C43.9346 348.11 44.0474 348.455 44.0474 348.913C44.0474 349.357 43.9346 349.699 43.709 349.938C43.4834 350.178 43.1758 350.297 42.7861 350.297C42.4375 350.297 42.147 350.191 41.9146 349.979C41.689 349.761 41.5762 349.405 41.5762 348.913ZM56.5776 342.484C56.5776 345.075 56.1675 347.009 55.3472 348.288C54.5337 349.566 53.2861 350.205 51.6045 350.205C49.9912 350.205 48.7642 349.552 47.9233 348.247C47.0825 346.934 46.6621 345.013 46.6621 342.484C46.6621 339.873 47.0688 337.935 47.8823 336.67C48.6958 335.405 49.9365 334.773 51.6045 334.773C53.2314 334.773 54.4653 335.433 55.3062 336.752C56.1538 338.071 56.5776 339.982 56.5776 342.484ZM48.3848 342.484C48.3848 344.665 48.6411 346.254 49.1538 347.252C49.6665 348.243 50.4834 348.739 51.6045 348.739C52.7393 348.739 53.5596 348.236 54.0654 347.231C54.5781 346.22 54.8345 344.637 54.8345 342.484C54.8345 340.331 54.5781 338.755 54.0654 337.757C53.5596 336.752 52.7393 336.25 51.6045 336.25C50.4834 336.25 49.6665 336.745 49.1538 337.736C48.6411 338.721 48.3848 340.303 48.3848 342.484ZM68.5234 348.8C68.8242 348.8 69.1147 348.78 69.395 348.739C69.6753 348.691 69.8975 348.643 70.0615 348.595V349.897C69.877 349.986 69.6035 350.058 69.2412 350.113C68.8857 350.174 68.5645 350.205 68.2773 350.205C66.1035 350.205 65.0166 349.06 65.0166 346.77V340.084H63.4067V339.264L65.0166 338.557L65.7344 336.157H66.7188V338.762H69.9795V340.084H66.7188V346.698C66.7188 347.375 66.8794 347.895 67.2007 348.257C67.522 348.619 67.9629 348.8 68.5234 348.8ZM80.0078 350V342.73C80.0078 341.814 79.7993 341.13 79.3823 340.679C78.9653 340.228 78.3125 340.002 77.4238 340.002C76.2412 340.002 75.3765 340.324 74.8296 340.966C74.2896 341.609 74.0195 342.662 74.0195 344.125V350H72.3174V334.045H74.0195V338.875C74.0195 339.456 73.9922 339.938 73.9375 340.32H74.04C74.375 339.78 74.8501 339.356 75.4653 339.049C76.0874 338.734 76.7949 338.577 77.5879 338.577C78.9619 338.577 79.9907 338.905 80.6743 339.562C81.3647 340.211 81.71 341.247 81.71 342.668V350H80.0078ZM89.9644 350.205C88.3032 350.205 86.9907 349.699 86.0269 348.688C85.0698 347.676 84.5913 346.271 84.5913 344.473C84.5913 342.662 85.0356 341.223 85.9243 340.156C86.8198 339.09 88.0195 338.557 89.5234 338.557C90.9316 338.557 92.0459 339.021 92.8662 339.951C93.6865 340.874 94.0967 342.094 94.0967 343.612V344.688H86.355C86.3892 346.008 86.7207 347.009 87.3496 347.693C87.9854 348.376 88.8774 348.718 90.0259 348.718C91.2358 348.718 92.4321 348.465 93.6147 347.959V349.477C93.0132 349.737 92.4424 349.921 91.9023 350.031C91.3691 350.147 90.7231 350.205 89.9644 350.205ZM89.5029 339.982C88.6006 339.982 87.8794 340.276 87.3394 340.864C86.8062 341.452 86.4917 342.265 86.396 343.304H92.2715C92.2715 342.231 92.0322 341.411 91.5537 340.843C91.0752 340.269 90.3916 339.982 89.5029 339.982ZM111.333 350V342.689C111.333 341.793 111.142 341.124 110.759 340.679C110.376 340.228 109.782 340.002 108.975 340.002C107.916 340.002 107.133 340.307 106.627 340.915C106.121 341.523 105.868 342.46 105.868 343.725V350H104.166V342.689C104.166 341.793 103.975 341.124 103.592 340.679C103.209 340.228 102.611 340.002 101.797 340.002C100.731 340.002 99.9482 340.324 99.4492 340.966C98.957 341.602 98.7109 342.648 98.7109 344.104V350H97.0088V338.762H98.3931L98.6699 340.3H98.752C99.0732 339.753 99.5244 339.326 100.105 339.018C100.693 338.71 101.35 338.557 102.074 338.557C103.831 338.557 104.979 339.192 105.52 340.464H105.602C105.937 339.876 106.422 339.411 107.058 339.069C107.693 338.728 108.418 338.557 109.231 338.557C110.503 338.557 111.453 338.885 112.082 339.541C112.718 340.19 113.036 341.233 113.036 342.668V350H111.333ZM121.3 350.205C119.639 350.205 118.327 349.699 117.363 348.688C116.406 347.676 115.927 346.271 115.927 344.473C115.927 342.662 116.372 341.223 117.26 340.156C118.156 339.09 119.355 338.557 120.859 338.557C122.268 338.557 123.382 339.021 124.202 339.951C125.022 340.874 125.433 342.094 125.433 343.612V344.688H117.691C117.725 346.008 118.057 347.009 118.686 347.693C119.321 348.376 120.213 348.718 121.362 348.718C122.572 348.718 123.768 348.465 124.951 347.959V349.477C124.349 349.737 123.778 349.921 123.238 350.031C122.705 350.147 122.059 350.205 121.3 350.205ZM120.839 339.982C119.937 339.982 119.215 340.276 118.675 340.864C118.142 341.452 117.828 342.265 117.732 343.304H123.607C123.607 342.231 123.368 341.411 122.89 340.843C122.411 340.269 121.728 339.982 120.839 339.982ZM135.594 346.934C135.594 347.98 135.205 348.787 134.425 349.354C133.646 349.921 132.552 350.205 131.144 350.205C129.654 350.205 128.492 349.969 127.658 349.498V347.918C128.198 348.192 128.775 348.407 129.391 348.564C130.013 348.722 130.611 348.8 131.185 348.8C132.074 348.8 132.757 348.66 133.236 348.38C133.714 348.093 133.954 347.659 133.954 347.078C133.954 346.64 133.762 346.268 133.379 345.96C133.003 345.646 132.265 345.276 131.165 344.853C130.119 344.463 129.374 344.125 128.929 343.837C128.492 343.543 128.164 343.212 127.945 342.843C127.733 342.474 127.627 342.033 127.627 341.52C127.627 340.604 128 339.883 128.745 339.356C129.49 338.823 130.512 338.557 131.811 338.557C133.021 338.557 134.203 338.803 135.358 339.295L134.753 340.679C133.625 340.214 132.604 339.982 131.688 339.982C130.881 339.982 130.272 340.108 129.862 340.361C129.452 340.614 129.247 340.963 129.247 341.407C129.247 341.708 129.322 341.964 129.473 342.176C129.63 342.388 129.879 342.59 130.221 342.781C130.563 342.973 131.219 343.25 132.19 343.612C133.523 344.097 134.422 344.586 134.887 345.078C135.358 345.57 135.594 346.189 135.594 346.934ZM138.127 348.913C138.127 348.455 138.229 348.11 138.435 347.877C138.646 347.638 138.947 347.519 139.337 347.519C139.733 347.519 140.041 347.638 140.26 347.877C140.485 348.11 140.598 348.455 140.598 348.913C140.598 349.357 140.485 349.699 140.26 349.938C140.034 350.178 139.727 350.297 139.337 350.297C138.988 350.297 138.698 350.191 138.465 349.979C138.24 349.761 138.127 349.405 138.127 348.913Z" fill="#A0A2A4"/>
<path d="M39.064 206L37.9771 202.432H32.5117L31.4248 206H28L33.291 190.947H37.1772L42.4888 206H39.064ZM37.2183 199.766C36.2134 196.532 35.646 194.704 35.5161 194.28C35.3931 193.856 35.3042 193.521 35.2495 193.275C35.0239 194.15 34.3779 196.313 33.3115 199.766H37.2183ZM47.5645 198.063H48.6104C49.5879 198.063 50.3193 197.872 50.8047 197.489C51.29 197.1 51.5327 196.536 51.5327 195.797C51.5327 195.052 51.3276 194.502 50.9175 194.146C50.5142 193.791 49.8784 193.613 49.0103 193.613H47.5645V198.063ZM54.7422 195.685C54.7422 197.298 54.2363 198.532 53.2246 199.386C52.2197 200.241 50.7876 200.668 48.9282 200.668H47.5645V206H44.3857V191.009H49.1743C50.9927 191.009 52.3735 191.402 53.3169 192.188C54.2671 192.967 54.7422 194.133 54.7422 195.685ZM60.751 198.063H61.7969C62.7744 198.063 63.5059 197.872 63.9912 197.489C64.4766 197.1 64.7192 196.536 64.7192 195.797C64.7192 195.052 64.5142 194.502 64.104 194.146C63.7007 193.791 63.0649 193.613 62.1968 193.613H60.751V198.063ZM67.9287 195.685C67.9287 197.298 67.4229 198.532 66.4111 199.386C65.4062 200.241 63.9741 200.668 62.1147 200.668H60.751V206H57.5723V191.009H62.3608C64.1792 191.009 65.5601 191.402 66.5034 192.188C67.4536 192.967 67.9287 194.133 67.9287 195.685ZM79.6079 201.837C79.6079 203.19 79.1191 204.257 78.1416 205.036C77.1709 205.815 75.8174 206.205 74.0811 206.205C72.4814 206.205 71.0664 205.904 69.8359 205.303V202.35C70.8477 202.801 71.7021 203.119 72.3994 203.303C73.1035 203.488 73.7461 203.58 74.3271 203.58C75.0244 203.58 75.5576 203.447 75.9268 203.18C76.3027 202.914 76.4907 202.517 76.4907 201.991C76.4907 201.697 76.4087 201.437 76.2446 201.211C76.0806 200.979 75.8379 200.757 75.5166 200.545C75.2021 200.333 74.5562 199.995 73.5786 199.53C72.6626 199.099 71.9756 198.686 71.5176 198.289C71.0596 197.893 70.6938 197.431 70.4204 196.905C70.147 196.378 70.0103 195.763 70.0103 195.059C70.0103 193.733 70.458 192.69 71.3535 191.932C72.2559 191.173 73.5 190.793 75.0859 190.793C75.8652 190.793 76.6069 190.886 77.311 191.07C78.022 191.255 78.7637 191.515 79.5361 191.85L78.5107 194.321C77.7109 193.993 77.0479 193.764 76.5215 193.634C76.002 193.504 75.4893 193.439 74.9834 193.439C74.3818 193.439 73.9204 193.579 73.5991 193.859C73.2778 194.14 73.1172 194.505 73.1172 194.957C73.1172 195.237 73.1821 195.483 73.312 195.695C73.4419 195.9 73.647 196.102 73.9272 196.3C74.2144 196.491 74.8877 196.84 75.9473 197.346C77.3486 198.016 78.3091 198.689 78.8286 199.366C79.3481 200.036 79.6079 200.859 79.6079 201.837Z" fill="#95989A"/>
<path d="M108.418 250H100.061V235.009H108.418V236.557H101.804V241.387H108.018V242.925H101.804V248.441H108.418V250ZM118.344 242.146H123.44V249.436C122.647 249.689 121.84 249.88 121.02 250.01C120.2 250.14 119.25 250.205 118.169 250.205C115.9 250.205 114.133 249.532 112.868 248.185C111.604 246.832 110.971 244.938 110.971 242.504C110.971 240.946 111.282 239.582 111.904 238.413C112.533 237.237 113.436 236.342 114.611 235.727C115.787 235.104 117.165 234.793 118.744 234.793C120.343 234.793 121.833 235.087 123.214 235.675L122.538 237.213C121.184 236.639 119.882 236.352 118.631 236.352C116.806 236.352 115.38 236.896 114.355 237.982C113.33 239.069 112.817 240.577 112.817 242.504C112.817 244.528 113.309 246.062 114.293 247.108C115.285 248.154 116.737 248.677 118.651 248.677C119.69 248.677 120.706 248.558 121.697 248.318V243.704H118.344V242.146ZM133.704 250L133.366 248.4H133.284C132.723 249.104 132.163 249.583 131.602 249.836C131.048 250.082 130.354 250.205 129.521 250.205C128.406 250.205 127.531 249.918 126.896 249.344C126.267 248.77 125.952 247.953 125.952 246.893C125.952 244.624 127.767 243.434 131.397 243.325L133.304 243.263V242.566C133.304 241.684 133.113 241.035 132.73 240.618C132.354 240.194 131.749 239.982 130.915 239.982C129.979 239.982 128.919 240.269 127.736 240.843L127.213 239.541C127.767 239.24 128.372 239.004 129.028 238.833C129.691 238.663 130.354 238.577 131.018 238.577C132.357 238.577 133.349 238.875 133.991 239.469C134.641 240.064 134.965 241.018 134.965 242.33V250H133.704ZM129.859 248.8C130.918 248.8 131.749 248.51 132.351 247.929C132.959 247.348 133.263 246.534 133.263 245.488V244.473L131.561 244.545C130.208 244.593 129.23 244.805 128.628 245.181C128.034 245.55 127.736 246.127 127.736 246.914C127.736 247.529 127.921 247.997 128.29 248.318C128.666 248.64 129.189 248.8 129.859 248.8ZM140.185 250H138.482V234.045H140.185V250ZM145.496 250H143.794V234.045H145.496V250ZM153.853 250.205C152.192 250.205 150.879 249.699 149.916 248.688C148.958 247.676 148.48 246.271 148.48 244.473C148.48 242.662 148.924 241.223 149.813 240.156C150.708 239.09 151.908 238.557 153.412 238.557C154.82 238.557 155.935 239.021 156.755 239.951C157.575 240.874 157.985 242.094 157.985 243.612V244.688H150.244C150.278 246.008 150.609 247.009 151.238 247.693C151.874 248.376 152.766 248.718 153.915 248.718C155.125 248.718 156.321 248.465 157.503 247.959V249.477C156.902 249.737 156.331 249.921 155.791 250.031C155.258 250.147 154.612 250.205 153.853 250.205ZM153.392 239.982C152.489 239.982 151.768 240.276 151.228 240.864C150.695 241.452 150.38 242.265 150.285 243.304H156.16C156.16 242.231 155.921 241.411 155.442 240.843C154.964 240.269 154.28 239.982 153.392 239.982ZM166.024 238.557C166.523 238.557 166.971 238.598 167.368 238.68L167.132 240.259C166.667 240.156 166.257 240.105 165.901 240.105C164.992 240.105 164.213 240.474 163.563 241.212C162.921 241.951 162.6 242.87 162.6 243.971V250H160.897V238.762H162.302L162.497 240.843H162.579C162.996 240.112 163.499 239.548 164.086 239.151C164.674 238.755 165.32 238.557 166.024 238.557ZM167.686 238.762H169.511L171.972 245.17C172.512 246.633 172.847 247.689 172.977 248.339H173.059C173.147 247.99 173.332 247.396 173.612 246.555C173.899 245.707 174.829 243.109 176.401 238.762H178.227L173.397 251.559C172.918 252.823 172.358 253.719 171.715 254.245C171.08 254.778 170.297 255.045 169.367 255.045C168.848 255.045 168.335 254.987 167.829 254.871V253.507C168.205 253.589 168.625 253.63 169.09 253.63C170.259 253.63 171.093 252.974 171.592 251.661L172.218 250.062L167.686 238.762Z" fill="#4B4C4C"/>
<path d="M108.418 277H100.061V262.009H108.418V263.557H101.804V268.387H108.018V269.925H101.804V275.441H108.418V277ZM118.344 269.146H123.44V276.436C122.647 276.689 121.84 276.88 121.02 277.01C120.2 277.14 119.25 277.205 118.169 277.205C115.9 277.205 114.133 276.532 112.868 275.185C111.604 273.832 110.971 271.938 110.971 269.504C110.971 267.946 111.282 266.582 111.904 265.413C112.533 264.237 113.436 263.342 114.611 262.727C115.787 262.104 117.165 261.793 118.744 261.793C120.343 261.793 121.833 262.087 123.214 262.675L122.538 264.213C121.184 263.639 119.882 263.352 118.631 263.352C116.806 263.352 115.38 263.896 114.355 264.982C113.33 266.069 112.817 267.577 112.817 269.504C112.817 271.528 113.309 273.062 114.293 274.108C115.285 275.154 116.737 275.677 118.651 275.677C119.69 275.677 120.706 275.558 121.697 275.318V270.704H118.344V269.146ZM133.704 277L133.366 275.4H133.284C132.723 276.104 132.163 276.583 131.602 276.836C131.048 277.082 130.354 277.205 129.521 277.205C128.406 277.205 127.531 276.918 126.896 276.344C126.267 275.77 125.952 274.953 125.952 273.893C125.952 271.624 127.767 270.434 131.397 270.325L133.304 270.263V269.566C133.304 268.684 133.113 268.035 132.73 267.618C132.354 267.194 131.749 266.982 130.915 266.982C129.979 266.982 128.919 267.269 127.736 267.843L127.213 266.541C127.767 266.24 128.372 266.004 129.028 265.833C129.691 265.663 130.354 265.577 131.018 265.577C132.357 265.577 133.349 265.875 133.991 266.469C134.641 267.064 134.965 268.018 134.965 269.33V277H133.704ZM129.859 275.8C130.918 275.8 131.749 275.51 132.351 274.929C132.959 274.348 133.263 273.534 133.263 272.488V271.473L131.561 271.545C130.208 271.593 129.23 271.805 128.628 272.181C128.034 272.55 127.736 273.127 127.736 273.914C127.736 274.529 127.921 274.997 128.29 275.318C128.666 275.64 129.189 275.8 129.859 275.8ZM140.185 277H138.482V261.045H140.185V277ZM145.496 277H143.794V261.045H145.496V277ZM153.853 277.205C152.192 277.205 150.879 276.699 149.916 275.688C148.958 274.676 148.48 273.271 148.48 271.473C148.48 269.662 148.924 268.223 149.813 267.156C150.708 266.09 151.908 265.557 153.412 265.557C154.82 265.557 155.935 266.021 156.755 266.951C157.575 267.874 157.985 269.094 157.985 270.612V271.688H150.244C150.278 273.008 150.609 274.009 151.238 274.693C151.874 275.376 152.766 275.718 153.915 275.718C155.125 275.718 156.321 275.465 157.503 274.959V276.477C156.902 276.737 156.331 276.921 155.791 277.031C155.258 277.147 154.612 277.205 153.853 277.205ZM153.392 266.982C152.489 266.982 151.768 267.276 151.228 267.864C150.695 268.452 150.38 269.265 150.285 270.304H156.16C156.16 269.231 155.921 268.411 155.442 267.843C154.964 267.269 154.28 266.982 153.392 266.982ZM166.024 265.557C166.523 265.557 166.971 265.598 167.368 265.68L167.132 267.259C166.667 267.156 166.257 267.105 165.901 267.105C164.992 267.105 164.213 267.474 163.563 268.212C162.921 268.951 162.6 269.87 162.6 270.971V277H160.897V265.762H162.302L162.497 267.843H162.579C162.996 267.112 163.499 266.548 164.086 266.151C164.674 265.755 165.32 265.557 166.024 265.557ZM167.686 265.762H169.511L171.972 272.17C172.512 273.633 172.847 274.689 172.977 275.339H173.059C173.147 274.99 173.332 274.396 173.612 273.555C173.899 272.707 174.829 270.109 176.401 265.762H178.227L173.397 278.559C172.918 279.823 172.358 280.719 171.715 281.245C171.08 281.778 170.297 282.045 169.367 282.045C168.848 282.045 168.335 281.987 167.829 281.871V280.507C168.205 280.589 168.625 280.63 169.09 280.63C170.259 280.63 171.093 279.974 171.592 278.661L172.218 277.062L167.686 265.762ZM194.684 277L192.623 270.407C192.493 270.003 192.25 269.087 191.895 267.659H191.813C191.54 268.855 191.3 269.778 191.095 270.427L188.973 277H187.004L183.938 265.762H185.722C186.447 268.585 186.997 270.735 187.373 272.211C187.756 273.688 187.975 274.683 188.029 275.195H188.111C188.187 274.806 188.306 274.303 188.47 273.688C188.641 273.066 188.788 272.574 188.911 272.211L190.972 265.762H192.818L194.828 272.211C195.21 273.387 195.47 274.375 195.607 275.175H195.689C195.716 274.929 195.788 274.549 195.904 274.037C196.027 273.524 196.742 270.766 198.047 265.762H199.811L196.704 277H194.684ZM203.554 277H201.852V265.762H203.554V277ZM201.708 262.716C201.708 262.327 201.804 262.043 201.995 261.865C202.187 261.681 202.426 261.588 202.713 261.588C202.986 261.588 203.222 261.681 203.42 261.865C203.619 262.05 203.718 262.333 203.718 262.716C203.718 263.099 203.619 263.386 203.42 263.578C203.222 263.762 202.986 263.854 202.713 263.854C202.426 263.854 202.187 263.762 201.995 263.578C201.804 263.386 201.708 263.099 201.708 262.716ZM210.793 275.8C211.094 275.8 211.384 275.78 211.665 275.739C211.945 275.691 212.167 275.643 212.331 275.595V276.897C212.146 276.986 211.873 277.058 211.511 277.113C211.155 277.174 210.834 277.205 210.547 277.205C208.373 277.205 207.286 276.06 207.286 273.77V267.084H205.676V266.264L207.286 265.557L208.004 263.157H208.988V265.762H212.249V267.084H208.988V273.698C208.988 274.375 209.149 274.895 209.47 275.257C209.792 275.619 210.232 275.8 210.793 275.8ZM222.277 277V269.73C222.277 268.814 222.069 268.13 221.652 267.679C221.235 267.228 220.582 267.002 219.693 267.002C218.511 267.002 217.646 267.324 217.099 267.966C216.559 268.609 216.289 269.662 216.289 271.125V277H214.587V261.045H216.289V265.875C216.289 266.456 216.262 266.938 216.207 267.32H216.31C216.645 266.78 217.12 266.356 217.735 266.049C218.357 265.734 219.064 265.577 219.857 265.577C221.231 265.577 222.26 265.905 222.944 266.562C223.634 267.211 223.979 268.247 223.979 269.668V277H222.277ZM240.191 273.934C240.191 274.98 239.801 275.787 239.022 276.354C238.243 276.921 237.149 277.205 235.741 277.205C234.25 277.205 233.088 276.969 232.254 276.498V274.918C232.794 275.192 233.372 275.407 233.987 275.564C234.609 275.722 235.208 275.8 235.782 275.8C236.67 275.8 237.354 275.66 237.833 275.38C238.311 275.093 238.55 274.659 238.55 274.078C238.55 273.64 238.359 273.268 237.976 272.96C237.6 272.646 236.862 272.276 235.761 271.853C234.715 271.463 233.97 271.125 233.526 270.837C233.088 270.543 232.76 270.212 232.542 269.843C232.33 269.474 232.224 269.033 232.224 268.52C232.224 267.604 232.596 266.883 233.341 266.356C234.086 265.823 235.108 265.557 236.407 265.557C237.617 265.557 238.8 265.803 239.955 266.295L239.35 267.679C238.222 267.214 237.2 266.982 236.284 266.982C235.478 266.982 234.869 267.108 234.459 267.361C234.049 267.614 233.844 267.963 233.844 268.407C233.844 268.708 233.919 268.964 234.069 269.176C234.227 269.388 234.476 269.59 234.818 269.781C235.16 269.973 235.816 270.25 236.787 270.612C238.12 271.097 239.019 271.586 239.483 272.078C239.955 272.57 240.191 273.189 240.191 273.934ZM246.6 275.8C246.9 275.8 247.191 275.78 247.471 275.739C247.751 275.691 247.974 275.643 248.138 275.595V276.897C247.953 276.986 247.68 277.058 247.317 277.113C246.962 277.174 246.641 277.205 246.354 277.205C244.18 277.205 243.093 276.06 243.093 273.77V267.084H241.483V266.264L243.093 265.557L243.811 263.157H244.795V265.762H248.056V267.084H244.795V273.698C244.795 274.375 244.956 274.895 245.277 275.257C245.598 275.619 246.039 275.8 246.6 275.8ZM260.094 271.371C260.094 273.203 259.632 274.635 258.709 275.667C257.787 276.692 256.512 277.205 254.885 277.205C253.88 277.205 252.988 276.969 252.208 276.498C251.429 276.026 250.828 275.349 250.404 274.467C249.98 273.585 249.768 272.553 249.768 271.371C249.768 269.539 250.226 268.113 251.142 267.095C252.058 266.069 253.33 265.557 254.957 265.557C256.529 265.557 257.776 266.08 258.699 267.125C259.629 268.171 260.094 269.586 260.094 271.371ZM251.532 271.371C251.532 272.806 251.819 273.9 252.393 274.652C252.967 275.404 253.812 275.78 254.926 275.78C256.04 275.78 256.884 275.407 257.458 274.662C258.04 273.91 258.33 272.813 258.33 271.371C258.33 269.942 258.04 268.858 257.458 268.12C256.884 267.375 256.033 267.002 254.905 267.002C253.791 267.002 252.95 267.368 252.383 268.1C251.815 268.831 251.532 269.921 251.532 271.371ZM268.215 265.557C268.714 265.557 269.162 265.598 269.558 265.68L269.322 267.259C268.857 267.156 268.447 267.105 268.092 267.105C267.183 267.105 266.403 267.474 265.754 268.212C265.111 268.951 264.79 269.87 264.79 270.971V277H263.088V265.762H264.493L264.688 267.843H264.77C265.187 267.112 265.689 266.548 266.277 266.151C266.865 265.755 267.511 265.557 268.215 265.557ZM276.408 277.205C274.747 277.205 273.434 276.699 272.47 275.688C271.513 274.676 271.035 273.271 271.035 271.473C271.035 269.662 271.479 268.223 272.368 267.156C273.263 266.09 274.463 265.557 275.967 265.557C277.375 265.557 278.489 266.021 279.31 266.951C280.13 267.874 280.54 269.094 280.54 270.612V271.688H272.798C272.833 273.008 273.164 274.009 273.793 274.693C274.429 275.376 275.321 275.718 276.469 275.718C277.679 275.718 278.875 275.465 280.058 274.959V276.477C279.457 276.737 278.886 276.921 278.346 277.031C277.812 277.147 277.167 277.205 276.408 277.205ZM275.946 266.982C275.044 266.982 274.323 267.276 273.783 267.864C273.25 268.452 272.935 269.265 272.839 270.304H278.715C278.715 269.231 278.476 268.411 277.997 267.843C277.519 267.269 276.835 266.982 275.946 266.982ZM297.982 277H288.128V275.534L292.076 271.565C293.279 270.349 294.072 269.48 294.455 268.961C294.837 268.441 295.125 267.936 295.316 267.443C295.507 266.951 295.603 266.421 295.603 265.854C295.603 265.054 295.36 264.422 294.875 263.957C294.39 263.485 293.716 263.25 292.855 263.25C292.233 263.25 291.642 263.352 291.081 263.557C290.527 263.762 289.909 264.135 289.225 264.675L288.323 263.516C289.704 262.368 291.208 261.793 292.834 261.793C294.243 261.793 295.347 262.156 296.146 262.88C296.946 263.598 297.346 264.565 297.346 265.782C297.346 266.732 297.08 267.672 296.546 268.602C296.013 269.532 295.015 270.708 293.552 272.129L290.271 275.339V275.421H297.982V277ZM300.679 275.913C300.679 275.455 300.781 275.11 300.986 274.877C301.198 274.638 301.499 274.519 301.889 274.519C302.285 274.519 302.593 274.638 302.812 274.877C303.037 275.11 303.15 275.455 303.15 275.913C303.15 276.357 303.037 276.699 302.812 276.938C302.586 277.178 302.278 277.297 301.889 277.297C301.54 277.297 301.25 277.191 301.017 276.979C300.792 276.761 300.679 276.405 300.679 275.913ZM315.68 269.484C315.68 272.075 315.27 274.009 314.45 275.288C313.636 276.566 312.389 277.205 310.707 277.205C309.094 277.205 307.867 276.552 307.026 275.247C306.185 273.934 305.765 272.013 305.765 269.484C305.765 266.873 306.171 264.935 306.985 263.67C307.798 262.405 309.039 261.773 310.707 261.773C312.334 261.773 313.568 262.433 314.409 263.752C315.256 265.071 315.68 266.982 315.68 269.484ZM307.487 269.484C307.487 271.665 307.744 273.254 308.256 274.252C308.769 275.243 309.586 275.739 310.707 275.739C311.842 275.739 312.662 275.236 313.168 274.231C313.681 273.22 313.937 271.637 313.937 269.484C313.937 267.331 313.681 265.755 313.168 264.757C312.662 263.752 311.842 263.25 310.707 263.25C309.586 263.25 308.769 263.745 308.256 264.736C307.744 265.721 307.487 267.303 307.487 269.484Z" fill="#76797C"/>
<rect x="30" y="224" width="57" height="57" rx="3" fill="#223164"/>
<rect x="37.505" y="260.688" width="19.1608" height="34.4895" rx="1" transform="rotate(-90 37.505 260.688)" fill="#FD8A8A"/>
<rect x="40.7035" y="263.442" width="19.1608" height="34.4895" rx="1" transform="rotate(-90 40.7035 263.442)" fill="white"/>
<rect x="43.6155" y="249.93" width="11.7845" height="11.7845" rx="1" fill="#FB6979"/>
<defs>
<filter id="filter0_d_15_602" x="0" y="166" width="423" height="228" filterUnits="userSpaceOnUse" color-interpolation-filters="sRGB">
<feFlood flood-opacity="0" result="BackgroundImageFix"/>
<feColorMatrix in="SourceAlpha" type="matrix" values="0 0 0 0 0 0 0 0 0 0 0 0 0 0 0 0 0 0 127 0" result="hardAlpha"/>
<feOffset/>
<feGaussianBlur stdDeviation="2.5"/>
<feComposite in2="hardAlpha" operator="out"/>
<feColorMatrix type="matrix" values="0 0 0 0 0.733333 0 0 0 0 0.733333 0 0 0 0 0.733333 0 0 0 0.25 0"/>
<feBlend mode="normal" in2="BackgroundImageFix" result="effect1_dropShadow_15_602"/>
<feBlend mode="normal" in="SourceGraphic" in2="effect1_dropShadow_15_602" result="shape"/>
</filter>
<clipPath id="clip0_15_602">
<rect width="20" height="20" fill="white" transform="translate(383 89)"/>
</clipPath>
</defs>
</svg>
