<svg width="423" height="394" viewBox="0 0 423 394" fill="none" xmlns="http://www.w3.org/2000/svg">
<rect x="59" y="52" width="163" height="30" rx="5" fill="#DFDFDF"/>
<g filter="url(#filter0_d_15_603)">
<rect x="5" y="212" width="413" height="177" rx="5" fill="white"/>
</g>
<path d="M41.325 323.8L32 317.475V315.925L41.325 309.6V311.575L33.8 316.65V316.75L41.325 321.825V323.8ZM52.2402 325.3C51.3236 325.3 50.4652 325.158 49.6652 324.875C48.8819 324.592 48.1902 324.175 47.5902 323.625C47.0069 323.075 46.5402 322.408 46.1902 321.625C45.8569 320.825 45.6902 319.917 45.6902 318.9C45.6902 317.917 45.8569 317.033 46.1902 316.25C46.5402 315.467 46.9986 314.8 47.5652 314.25C48.1486 313.7 48.8069 313.283 49.5402 313C50.2902 312.7 51.0736 312.55 51.8902 312.55C52.7569 312.55 53.5319 312.692 54.2152 312.975C54.9152 313.242 55.4986 313.625 55.9652 314.125C56.4486 314.625 56.8152 315.225 57.0652 315.925C57.3152 316.625 57.4402 317.4 57.4402 318.25C57.4402 318.483 57.4319 318.708 57.4152 318.925C57.3986 319.142 57.3736 319.333 57.3402 319.5H47.7652C47.8986 320.883 48.3986 321.925 49.2652 322.625C50.1486 323.308 51.2236 323.65 52.4902 323.65C53.2236 323.65 53.8819 323.55 54.4652 323.35C55.0652 323.133 55.6402 322.85 56.1902 322.5L56.9402 323.85C56.3402 324.25 55.6486 324.592 54.8652 324.875C54.0986 325.158 53.2236 325.3 52.2402 325.3ZM51.9402 314.175C51.4402 314.175 50.9569 314.258 50.4902 314.425C50.0402 314.592 49.6319 314.833 49.2652 315.15C48.8986 315.45 48.5902 315.833 48.3402 316.3C48.0902 316.767 47.9152 317.3 47.8152 317.9H55.5652C55.4819 316.65 55.1152 315.717 54.4652 315.1C53.8319 314.483 52.9902 314.175 51.9402 314.175ZM61.1055 317.525V315.975H71.8555V317.525H61.1055ZM81.3707 330.6C79.5874 330.6 78.204 330.308 77.2207 329.725C76.254 329.142 75.7707 328.308 75.7707 327.225C75.7707 326.742 75.9374 326.267 76.2707 325.8C76.6207 325.333 77.1207 324.908 77.7707 324.525V324.425C77.4374 324.242 77.1457 323.992 76.8957 323.675C76.6457 323.358 76.5207 322.942 76.5207 322.425C76.5207 322.042 76.6457 321.65 76.8957 321.25C77.1457 320.833 77.504 320.467 77.9707 320.15V320.05C77.554 319.733 77.1957 319.317 76.8957 318.8C76.6124 318.267 76.4707 317.633 76.4707 316.9C76.4707 316.233 76.5957 315.633 76.8457 315.1C77.1124 314.567 77.4624 314.117 77.8957 313.75C78.329 313.367 78.829 313.075 79.3957 312.875C79.979 312.658 80.5957 312.55 81.2457 312.55C81.9124 312.55 82.5124 312.65 83.0457 312.85H88.0707V314.525H84.9207C85.204 314.808 85.4457 315.167 85.6457 315.6C85.8457 316.033 85.9457 316.492 85.9457 316.975C85.9457 317.625 85.8207 318.208 85.5707 318.725C85.3374 319.242 85.004 319.683 84.5707 320.05C84.154 320.4 83.654 320.675 83.0707 320.875C82.504 321.058 81.8957 321.15 81.2457 321.15C80.929 321.15 80.5874 321.117 80.2207 321.05C79.8707 320.967 79.529 320.85 79.1957 320.7C78.5624 321.1 78.2457 321.567 78.2457 322.1C78.2457 322.583 78.4624 322.942 78.8957 323.175C79.3457 323.392 79.9707 323.5 80.7707 323.5H83.4957C85.0624 323.5 86.2207 323.717 86.9707 324.15C87.7374 324.583 88.1207 325.317 88.1207 326.35C88.1207 326.917 87.9624 327.458 87.6457 327.975C87.329 328.492 86.879 328.942 86.2957 329.325C85.7124 329.708 85.004 330.017 84.1707 330.25C83.3374 330.483 82.404 330.6 81.3707 330.6ZM81.2457 319.775C82.029 319.775 82.6874 319.517 83.2207 319C83.7707 318.483 84.0457 317.783 84.0457 316.9C84.0457 316.483 83.9707 316.1 83.8207 315.75C83.6707 315.4 83.4707 315.1 83.2207 314.85C82.9707 314.6 82.6707 314.408 82.3207 314.275C81.9874 314.125 81.629 314.05 81.2457 314.05C80.8624 314.05 80.4957 314.125 80.1457 314.275C79.8124 314.408 79.5207 314.6 79.2707 314.85C79.0207 315.1 78.8207 315.4 78.6707 315.75C78.5207 316.1 78.4457 316.483 78.4457 316.9C78.4457 317.783 78.7207 318.483 79.2707 319C79.8207 319.517 80.479 319.775 81.2457 319.775ZM81.5207 329.1C82.2207 329.1 82.854 329.033 83.4207 328.9C83.9874 328.767 84.4707 328.583 84.8707 328.35C85.2707 328.133 85.5707 327.875 85.7707 327.575C85.9874 327.292 86.0957 326.992 86.0957 326.675C86.0957 326.092 85.8624 325.7 85.3957 325.5C84.9457 325.3 84.254 325.2 83.3207 325.2H80.9457C80.5957 325.2 80.2624 325.183 79.9457 325.15C79.6457 325.133 79.3624 325.083 79.0957 325C78.5124 325.317 78.104 325.642 77.8707 325.975C77.654 326.325 77.5457 326.675 77.5457 327.025C77.5457 327.658 77.879 328.158 78.5457 328.525C79.229 328.908 80.2207 329.1 81.5207 329.1ZM95.1109 325.3C94.5443 325.3 94.0109 325.217 93.5109 325.05C93.0109 324.9 92.5693 324.683 92.1859 324.4C91.8193 324.1 91.5276 323.742 91.3109 323.325C91.0943 322.892 90.9859 322.4 90.9859 321.85C90.9859 321.167 91.1443 320.575 91.4609 320.075C91.7943 319.558 92.3109 319.117 93.0109 318.75C93.7276 318.383 94.6443 318.083 95.7609 317.85C96.8776 317.617 98.2193 317.433 99.7859 317.3C99.7693 316.883 99.7026 316.492 99.5859 316.125C99.4693 315.758 99.2859 315.442 99.0359 315.175C98.7859 314.892 98.4526 314.667 98.0359 314.5C97.6359 314.333 97.1443 314.25 96.5609 314.25C95.7609 314.25 94.9943 314.408 94.2609 314.725C93.5276 315.025 92.8776 315.35 92.3109 315.7L91.5109 314.3C91.8109 314.1 92.1609 313.9 92.5609 313.7C92.9776 313.483 93.4109 313.292 93.8609 313.125C94.3276 312.958 94.8193 312.825 95.3359 312.725C95.8526 312.608 96.3776 312.55 96.9109 312.55C98.5776 312.55 99.8109 313.008 100.611 313.925C101.428 314.825 101.836 316.033 101.836 317.55V325H100.161L99.9859 323.35H99.9109C99.2276 323.883 98.4693 324.342 97.6359 324.725C96.8193 325.108 95.9776 325.3 95.1109 325.3ZM95.6609 323.65C96.3609 323.65 97.0443 323.5 97.7109 323.2C98.3943 322.883 99.0859 322.433 99.7859 321.85V318.65C98.4859 318.75 97.3943 318.892 96.5109 319.075C95.6443 319.258 94.9443 319.483 94.4109 319.75C93.8943 320 93.5276 320.292 93.3109 320.625C93.0943 320.942 92.9859 321.3 92.9859 321.7C92.9859 322.05 93.0609 322.35 93.2109 322.6C93.3609 322.833 93.5526 323.033 93.7859 323.2C94.0359 323.35 94.3193 323.467 94.6359 323.55C94.9693 323.617 95.3109 323.65 95.6609 323.65ZM114.126 325.3C112.826 325.3 111.835 324.933 111.151 324.2C110.468 323.467 110.126 322.375 110.126 320.925V308.875H105.801V307.2H112.176V321.075C112.176 321.975 112.393 322.625 112.826 323.025C113.26 323.408 113.843 323.6 114.576 323.6C115.293 323.6 116.051 323.417 116.851 323.05L117.376 324.575C116.81 324.808 116.293 324.983 115.826 325.1C115.36 325.233 114.793 325.3 114.126 325.3ZM129.116 325.3C127.816 325.3 126.825 324.933 126.141 324.2C125.458 323.467 125.116 322.375 125.116 320.925V308.875H120.791V307.2H127.166V321.075C127.166 321.975 127.383 322.625 127.816 323.025C128.25 323.408 128.833 323.6 129.566 323.6C130.283 323.6 131.041 323.417 131.841 323.05L132.366 324.575C131.8 324.808 131.283 324.983 130.816 325.1C130.35 325.233 129.783 325.3 129.116 325.3ZM142.182 325.3C141.265 325.3 140.407 325.158 139.607 324.875C138.823 324.592 138.132 324.175 137.532 323.625C136.948 323.075 136.482 322.408 136.132 321.625C135.798 320.825 135.632 319.917 135.632 318.9C135.632 317.917 135.798 317.033 136.132 316.25C136.482 315.467 136.94 314.8 137.507 314.25C138.09 313.7 138.748 313.283 139.482 313C140.232 312.7 141.015 312.55 141.832 312.55C142.698 312.55 143.473 312.692 144.157 312.975C144.857 313.242 145.44 313.625 145.907 314.125C146.39 314.625 146.757 315.225 147.007 315.925C147.257 316.625 147.382 317.4 147.382 318.25C147.382 318.483 147.373 318.708 147.357 318.925C147.34 319.142 147.315 319.333 147.282 319.5H137.707C137.84 320.883 138.34 321.925 139.207 322.625C140.09 323.308 141.165 323.65 142.432 323.65C143.165 323.65 143.823 323.55 144.407 323.35C145.007 323.133 145.582 322.85 146.132 322.5L146.882 323.85C146.282 324.25 145.59 324.592 144.807 324.875C144.04 325.158 143.165 325.3 142.182 325.3ZM141.882 314.175C141.382 314.175 140.898 314.258 140.432 314.425C139.982 314.592 139.573 314.833 139.207 315.15C138.84 315.45 138.532 315.833 138.282 316.3C138.032 316.767 137.857 317.3 137.757 317.9H145.507C145.423 316.65 145.057 315.717 144.407 315.1C143.773 314.483 142.932 314.175 141.882 314.175ZM152.572 325V312.85H154.272L154.447 315.725H154.522C155.155 314.742 155.93 313.967 156.847 313.4C157.78 312.833 158.814 312.55 159.947 312.55C160.397 312.55 160.814 312.592 161.197 312.675C161.58 312.742 161.964 312.867 162.347 313.05L161.872 314.825C161.439 314.675 161.072 314.567 160.772 314.5C160.489 314.433 160.105 314.4 159.622 314.4C158.705 314.4 157.822 314.667 156.972 315.2C156.139 315.717 155.355 316.608 154.622 317.875V325H152.572ZM167.187 330.225C166.587 330.225 166.054 330.142 165.587 329.975L166.012 328.35C166.179 328.4 166.354 328.442 166.537 328.475C166.737 328.508 166.929 328.525 167.112 328.525C167.962 328.525 168.654 328.275 169.187 327.775C169.72 327.292 170.137 326.675 170.437 325.925L170.812 325.025L165.137 312.85H167.212L170.187 319.575C170.42 320.108 170.662 320.683 170.912 321.3C171.179 321.917 171.437 322.517 171.687 323.1H171.787C172.004 322.517 172.22 321.925 172.437 321.325C172.67 320.708 172.887 320.125 173.087 319.575L175.737 312.85H177.687L172.337 326C172.104 326.6 171.837 327.158 171.537 327.675C171.237 328.192 170.879 328.633 170.462 329C170.045 329.383 169.562 329.683 169.012 329.9C168.479 330.117 167.87 330.225 167.187 330.225ZM181.027 317.525V315.975H191.777V317.525H181.027ZM196.743 325L194.093 312.85H196.143L197.593 319.9C197.709 320.483 197.809 321.042 197.893 321.575C197.976 322.108 198.059 322.667 198.143 323.25H198.243C198.326 322.667 198.426 322.108 198.543 321.575C198.676 321.025 198.809 320.467 198.943 319.9L200.443 313.6H202.493L203.943 319.9C204.076 320.483 204.209 321.042 204.343 321.575C204.493 322.108 204.609 322.667 204.693 323.25H204.793C204.893 322.667 204.976 322.108 205.043 321.575C205.126 321.042 205.226 320.483 205.343 319.9L206.793 312.85H208.693L206.093 325H203.443L202.043 319.2C201.843 318.35 201.643 317.15 201.443 315.6H201.343C201.143 317.15 200.943 318.35 200.743 319.2L199.393 325H196.743ZM216.783 325V314.525H211.133V312.85H218.833V325H216.783ZM217.583 310.3C217.116 310.3 216.724 310.158 216.408 309.875C216.091 309.575 215.933 309.183 215.933 308.7C215.933 308.217 216.091 307.833 216.408 307.55C216.724 307.25 217.116 307.1 217.583 307.1C218.049 307.1 218.441 307.25 218.758 307.55C219.074 307.833 219.233 308.217 219.233 308.7C219.233 309.183 219.074 309.575 218.758 309.875C218.441 310.158 218.049 310.3 217.583 310.3ZM230.648 325.3C229.848 325.3 229.123 325.158 228.473 324.875C227.84 324.592 227.29 324.183 226.823 323.65C226.356 323.1 225.998 322.433 225.748 321.65C225.498 320.867 225.373 319.967 225.373 318.95C225.373 317.967 225.523 317.083 225.823 316.3C226.14 315.5 226.548 314.825 227.048 314.275C227.565 313.725 228.156 313.3 228.823 313C229.49 312.7 230.181 312.55 230.898 312.55C231.631 312.55 232.281 312.692 232.848 312.975C233.431 313.242 233.99 313.625 234.523 314.125H234.598L234.498 311.875V307.2H236.548V325H234.848L234.673 323.4H234.598C234.098 323.917 233.498 324.367 232.798 324.75C232.115 325.117 231.398 325.3 230.648 325.3ZM231.073 323.575C232.273 323.575 233.415 322.967 234.498 321.75V315.7C233.948 315.183 233.406 314.817 232.873 314.6C232.356 314.383 231.831 314.275 231.298 314.275C230.765 314.275 230.265 314.392 229.798 314.625C229.348 314.842 228.948 315.158 228.598 315.575C228.265 315.975 227.998 316.458 227.798 317.025C227.598 317.592 227.498 318.225 227.498 318.925C227.498 320.392 227.806 321.533 228.423 322.35C229.056 323.167 229.94 323.575 231.073 323.575ZM246.263 330.6C244.48 330.6 243.097 330.308 242.113 329.725C241.147 329.142 240.663 328.308 240.663 327.225C240.663 326.742 240.83 326.267 241.163 325.8C241.513 325.333 242.013 324.908 242.663 324.525V324.425C242.33 324.242 242.038 323.992 241.788 323.675C241.538 323.358 241.413 322.942 241.413 322.425C241.413 322.042 241.538 321.65 241.788 321.25C242.038 320.833 242.397 320.467 242.863 320.15V320.05C242.447 319.733 242.088 319.317 241.788 318.8C241.505 318.267 241.363 317.633 241.363 316.9C241.363 316.233 241.488 315.633 241.738 315.1C242.005 314.567 242.355 314.117 242.788 313.75C243.222 313.367 243.722 313.075 244.288 312.875C244.872 312.658 245.488 312.55 246.138 312.55C246.805 312.55 247.405 312.65 247.938 312.85H252.963V314.525H249.813C250.097 314.808 250.338 315.167 250.538 315.6C250.738 316.033 250.838 316.492 250.838 316.975C250.838 317.625 250.713 318.208 250.463 318.725C250.23 319.242 249.897 319.683 249.463 320.05C249.047 320.4 248.547 320.675 247.963 320.875C247.397 321.058 246.788 321.15 246.138 321.15C245.822 321.15 245.48 321.117 245.113 321.05C244.763 320.967 244.422 320.85 244.088 320.7C243.455 321.1 243.138 321.567 243.138 322.1C243.138 322.583 243.355 322.942 243.788 323.175C244.238 323.392 244.863 323.5 245.663 323.5H248.388C249.955 323.5 251.113 323.717 251.863 324.15C252.63 324.583 253.013 325.317 253.013 326.35C253.013 326.917 252.855 327.458 252.538 327.975C252.222 328.492 251.772 328.942 251.188 329.325C250.605 329.708 249.897 330.017 249.063 330.25C248.23 330.483 247.297 330.6 246.263 330.6ZM246.138 319.775C246.922 319.775 247.58 319.517 248.113 319C248.663 318.483 248.938 317.783 248.938 316.9C248.938 316.483 248.863 316.1 248.713 315.75C248.563 315.4 248.363 315.1 248.113 314.85C247.863 314.6 247.563 314.408 247.213 314.275C246.88 314.125 246.522 314.05 246.138 314.05C245.755 314.05 245.388 314.125 245.038 314.275C244.705 314.408 244.413 314.6 244.163 314.85C243.913 315.1 243.713 315.4 243.563 315.75C243.413 316.1 243.338 316.483 243.338 316.9C243.338 317.783 243.613 318.483 244.163 319C244.713 319.517 245.372 319.775 246.138 319.775ZM246.413 329.1C247.113 329.1 247.747 329.033 248.313 328.9C248.88 328.767 249.363 328.583 249.763 328.35C250.163 328.133 250.463 327.875 250.663 327.575C250.88 327.292 250.988 326.992 250.988 326.675C250.988 326.092 250.755 325.7 250.288 325.5C249.838 325.3 249.147 325.2 248.213 325.2H245.838C245.488 325.2 245.155 325.183 244.838 325.15C244.538 325.133 244.255 325.083 243.988 325C243.405 325.317 242.997 325.642 242.763 325.975C242.547 326.325 242.438 326.675 242.438 327.025C242.438 327.658 242.772 328.158 243.438 328.525C244.122 328.908 245.113 329.1 246.413 329.1ZM262.104 325.3C261.187 325.3 260.329 325.158 259.529 324.875C258.745 324.592 258.054 324.175 257.454 323.625C256.87 323.075 256.404 322.408 256.054 321.625C255.72 320.825 255.554 319.917 255.554 318.9C255.554 317.917 255.72 317.033 256.054 316.25C256.404 315.467 256.862 314.8 257.429 314.25C258.012 313.7 258.67 313.283 259.404 313C260.154 312.7 260.937 312.55 261.754 312.55C262.62 312.55 263.395 312.692 264.079 312.975C264.779 313.242 265.362 313.625 265.829 314.125C266.312 314.625 266.679 315.225 266.929 315.925C267.179 316.625 267.304 317.4 267.304 318.25C267.304 318.483 267.295 318.708 267.279 318.925C267.262 319.142 267.237 319.333 267.204 319.5H257.629C257.762 320.883 258.262 321.925 259.129 322.625C260.012 323.308 261.087 323.65 262.354 323.65C263.087 323.65 263.745 323.55 264.329 323.35C264.929 323.133 265.504 322.85 266.054 322.5L266.804 323.85C266.204 324.25 265.512 324.592 264.729 324.875C263.962 325.158 263.087 325.3 262.104 325.3ZM261.804 314.175C261.304 314.175 260.82 314.258 260.354 314.425C259.904 314.592 259.495 314.833 259.129 315.15C258.762 315.45 258.454 315.833 258.204 316.3C257.954 316.767 257.779 317.3 257.679 317.9H265.429C265.345 316.65 264.979 315.717 264.329 315.1C263.695 314.483 262.854 314.175 261.804 314.175ZM278.694 325.3C277.81 325.3 277.069 325.183 276.469 324.95C275.869 324.7 275.385 324.358 275.019 323.925C274.652 323.475 274.385 322.942 274.219 322.325C274.069 321.708 273.994 321.025 273.994 320.275V314.525H270.569V312.975L274.069 312.85L274.344 308.95H276.044V312.85H282.019V314.525H276.044V320.3C276.044 320.85 276.094 321.333 276.194 321.75C276.294 322.15 276.46 322.492 276.694 322.775C276.927 323.058 277.244 323.275 277.644 323.425C278.044 323.558 278.535 323.625 279.119 323.625C279.702 323.625 280.227 323.575 280.694 323.475C281.16 323.375 281.61 323.242 282.044 323.075L282.494 324.575C281.944 324.775 281.36 324.942 280.744 325.075C280.144 325.225 279.46 325.3 278.694 325.3ZM305.599 325.3C304.799 325.3 304.074 325.158 303.424 324.875C302.791 324.592 302.241 324.183 301.774 323.65C301.308 323.1 300.949 322.433 300.699 321.65C300.449 320.867 300.324 319.967 300.324 318.95C300.324 317.967 300.474 317.083 300.774 316.3C301.091 315.5 301.499 314.825 301.999 314.275C302.516 313.725 303.108 313.3 303.774 313C304.441 312.7 305.133 312.55 305.849 312.55C306.583 312.55 307.233 312.692 307.799 312.975C308.383 313.242 308.941 313.625 309.474 314.125H309.549L309.449 311.875V307.2H311.499V325H309.799L309.624 323.4H309.549C309.049 323.917 308.449 324.367 307.749 324.75C307.066 325.117 306.349 325.3 305.599 325.3ZM306.024 323.575C307.224 323.575 308.366 322.967 309.449 321.75V315.7C308.899 315.183 308.358 314.817 307.824 314.6C307.308 314.383 306.783 314.275 306.249 314.275C305.716 314.275 305.216 314.392 304.749 314.625C304.299 314.842 303.899 315.158 303.549 315.575C303.216 315.975 302.949 316.458 302.749 317.025C302.549 317.592 302.449 318.225 302.449 318.925C302.449 320.392 302.758 321.533 303.374 322.35C304.008 323.167 304.891 323.575 306.024 323.575ZM319.964 325.3C319.398 325.3 318.864 325.217 318.364 325.05C317.864 324.9 317.423 324.683 317.039 324.4C316.673 324.1 316.381 323.742 316.164 323.325C315.948 322.892 315.839 322.4 315.839 321.85C315.839 321.167 315.998 320.575 316.314 320.075C316.648 319.558 317.164 319.117 317.864 318.75C318.581 318.383 319.498 318.083 320.614 317.85C321.731 317.617 323.073 317.433 324.639 317.3C324.623 316.883 324.556 316.492 324.439 316.125C324.323 315.758 324.139 315.442 323.889 315.175C323.639 314.892 323.306 314.667 322.889 314.5C322.489 314.333 321.998 314.25 321.414 314.25C320.614 314.25 319.848 314.408 319.114 314.725C318.381 315.025 317.731 315.35 317.164 315.7L316.364 314.3C316.664 314.1 317.014 313.9 317.414 313.7C317.831 313.483 318.264 313.292 318.714 313.125C319.181 312.958 319.673 312.825 320.189 312.725C320.706 312.608 321.231 312.55 321.764 312.55C323.431 312.55 324.664 313.008 325.464 313.925C326.281 314.825 326.689 316.033 326.689 317.55V325H325.014L324.839 323.35H324.764C324.081 323.883 323.323 324.342 322.489 324.725C321.673 325.108 320.831 325.3 319.964 325.3ZM320.514 323.65C321.214 323.65 321.898 323.5 322.564 323.2C323.248 322.883 323.939 322.433 324.639 321.85V318.65C323.339 318.75 322.248 318.892 321.364 319.075C320.498 319.258 319.798 319.483 319.264 319.75C318.748 320 318.381 320.292 318.164 320.625C317.948 320.942 317.839 321.3 317.839 321.7C317.839 322.05 317.914 322.35 318.064 322.6C318.214 322.833 318.406 323.033 318.639 323.2C318.889 323.35 319.173 323.467 319.489 323.55C319.823 323.617 320.164 323.65 320.514 323.65ZM338.655 325.3C337.771 325.3 337.03 325.183 336.43 324.95C335.83 324.7 335.346 324.358 334.98 323.925C334.613 323.475 334.346 322.942 334.18 322.325C334.03 321.708 333.955 321.025 333.955 320.275V314.525H330.53V312.975L334.03 312.85L334.305 308.95H336.005V312.85H341.98V314.525H336.005V320.3C336.005 320.85 336.055 321.333 336.155 321.75C336.255 322.15 336.421 322.492 336.655 322.775C336.888 323.058 337.205 323.275 337.605 323.425C338.005 323.558 338.496 323.625 339.08 323.625C339.663 323.625 340.188 323.575 340.655 323.475C341.121 323.375 341.571 323.242 342.005 323.075L342.455 324.575C341.905 324.775 341.321 324.942 340.705 325.075C340.105 325.225 339.421 325.3 338.655 325.3ZM349.945 325.3C349.378 325.3 348.845 325.217 348.345 325.05C347.845 324.9 347.403 324.683 347.02 324.4C346.653 324.1 346.362 323.742 346.145 323.325C345.928 322.892 345.82 322.4 345.82 321.85C345.82 321.167 345.978 320.575 346.295 320.075C346.628 319.558 347.145 319.117 347.845 318.75C348.562 318.383 349.478 318.083 350.595 317.85C351.712 317.617 353.053 317.433 354.62 317.3C354.603 316.883 354.537 316.492 354.42 316.125C354.303 315.758 354.12 315.442 353.87 315.175C353.62 314.892 353.287 314.667 352.87 314.5C352.47 314.333 351.978 314.25 351.395 314.25C350.595 314.25 349.828 314.408 349.095 314.725C348.362 315.025 347.712 315.35 347.145 315.7L346.345 314.3C346.645 314.1 346.995 313.9 347.395 313.7C347.812 313.483 348.245 313.292 348.695 313.125C349.162 312.958 349.653 312.825 350.17 312.725C350.687 312.608 351.212 312.55 351.745 312.55C353.412 312.55 354.645 313.008 355.445 313.925C356.262 314.825 356.67 316.033 356.67 317.55V325H354.995L354.82 323.35H354.745C354.062 323.883 353.303 324.342 352.47 324.725C351.653 325.108 350.812 325.3 349.945 325.3ZM350.495 323.65C351.195 323.65 351.878 323.5 352.545 323.2C353.228 322.883 353.92 322.433 354.62 321.85V318.65C353.32 318.75 352.228 318.892 351.345 319.075C350.478 319.258 349.778 319.483 349.245 319.75C348.728 320 348.362 320.292 348.145 320.625C347.928 320.942 347.82 321.3 347.82 321.7C347.82 322.05 347.895 322.35 348.045 322.6C348.195 322.833 348.387 323.033 348.62 323.2C348.87 323.35 349.153 323.467 349.47 323.55C349.803 323.617 350.145 323.65 350.495 323.65ZM360.91 317.525V315.975H371.66V317.525H360.91ZM36.9 356V345.525H31.25V343.85H38.95V356H36.9ZM37.7 341.3C37.2333 341.3 36.8417 341.158 36.525 340.875C36.2083 340.575 36.05 340.183 36.05 339.7C36.05 339.217 36.2083 338.833 36.525 338.55C36.8417 338.25 37.2333 338.1 37.7 338.1C38.1667 338.1 38.5583 338.25 38.875 338.55C39.1917 338.833 39.35 339.217 39.35 339.7C39.35 340.183 39.1917 340.575 38.875 340.875C38.5583 341.158 38.1667 341.3 37.7 341.3ZM50.7652 356.3C49.9652 356.3 49.2402 356.158 48.5902 355.875C47.9569 355.592 47.4069 355.183 46.9402 354.65C46.4736 354.1 46.1152 353.433 45.8652 352.65C45.6152 351.867 45.4902 350.967 45.4902 349.95C45.4902 348.967 45.6402 348.083 45.9402 347.3C46.2569 346.5 46.6652 345.825 47.1652 345.275C47.6819 344.725 48.2736 344.3 48.9402 344C49.6069 343.7 50.2986 343.55 51.0152 343.55C51.7486 343.55 52.3986 343.692 52.9652 343.975C53.5486 344.242 54.1069 344.625 54.6402 345.125H54.7152L54.6152 342.875V338.2H56.6652V356H54.9652L54.7902 354.4H54.7152C54.2152 354.917 53.6152 355.367 52.9152 355.75C52.2319 356.117 51.5152 356.3 50.7652 356.3ZM51.1902 354.575C52.3902 354.575 53.5319 353.967 54.6152 352.75V346.7C54.0652 346.183 53.5236 345.817 52.9902 345.6C52.4736 345.383 51.9486 345.275 51.4152 345.275C50.8819 345.275 50.3819 345.392 49.9152 345.625C49.4652 345.842 49.0652 346.158 48.7152 346.575C48.3819 346.975 48.1152 347.458 47.9152 348.025C47.7152 348.592 47.6152 349.225 47.6152 349.925C47.6152 351.392 47.9236 352.533 48.5402 353.35C49.1736 354.167 50.0569 354.575 51.1902 354.575ZM61.1055 345.85V344.3H71.8555V345.85H61.1055ZM61.1055 351.175V349.625H71.8555V351.175H61.1055ZM77.9207 347.2L77.2957 341.575L77.2457 338.825H79.9957L79.9457 341.575L79.3207 347.2H77.9207ZM83.6457 347.2L83.0207 341.575L82.9707 338.825H85.7207L85.6707 341.575L85.0457 347.2H83.6457ZM98.1609 356V351.6H89.9359V350.225L97.9109 340.05H100.111V349.95H102.586V351.6H100.111V356H98.1609ZM92.2109 349.95H98.1609V345C98.1776 344.567 98.1943 344.1 98.2109 343.6C98.2276 343.083 98.2526 342.608 98.2859 342.175H98.1609C97.9109 342.558 97.6443 342.95 97.3609 343.35C97.0776 343.733 96.8026 344.117 96.5359 344.5L92.2109 349.95ZM110.976 348.25C111.61 348.25 112.285 348.083 113.001 347.75C113.718 347.417 114.401 346.875 115.051 346.125C114.885 344.558 114.451 343.375 113.751 342.575C113.068 341.775 112.135 341.375 110.951 341.375C110.468 341.375 110.018 341.458 109.601 341.625C109.201 341.792 108.851 342.033 108.551 342.35C108.251 342.65 108.01 343.017 107.826 343.45C107.66 343.883 107.576 344.358 107.576 344.875C107.576 345.975 107.86 346.817 108.426 347.4C109.01 347.967 109.86 348.25 110.976 348.25ZM110.376 356.3C109.393 356.3 108.535 356.142 107.801 355.825C107.085 355.508 106.46 355.108 105.926 354.625L107.076 353.325C107.476 353.708 107.951 354.017 108.501 354.25C109.051 354.483 109.635 354.6 110.251 354.6C110.885 354.6 111.485 354.483 112.051 354.25C112.635 354.017 113.143 353.633 113.576 353.1C114.026 352.55 114.385 351.842 114.651 350.975C114.918 350.108 115.068 349.033 115.101 347.75C114.451 348.383 113.735 348.883 112.951 349.25C112.185 349.617 111.393 349.8 110.576 349.8C109.843 349.8 109.168 349.7 108.551 349.5C107.951 349.283 107.435 348.975 107.001 348.575C106.568 348.158 106.226 347.642 105.976 347.025C105.743 346.408 105.626 345.692 105.626 344.875C105.626 344.108 105.768 343.417 106.051 342.8C106.335 342.167 106.718 341.625 107.201 341.175C107.701 340.725 108.268 340.375 108.901 340.125C109.551 339.875 110.226 339.75 110.926 339.75C111.793 339.75 112.601 339.908 113.351 340.225C114.101 340.542 114.751 341.025 115.301 341.675C115.851 342.308 116.276 343.108 116.576 344.075C116.893 345.025 117.051 346.142 117.051 347.425C117.051 349.025 116.86 350.392 116.476 351.525C116.11 352.642 115.618 353.558 115.001 354.275C114.385 354.975 113.676 355.492 112.876 355.825C112.076 356.142 111.243 356.3 110.376 356.3ZM126.966 356.3C126.1 356.3 125.291 356.142 124.541 355.825C123.808 355.508 123.166 355.033 122.616 354.4C122.066 353.75 121.633 352.95 121.316 352C121.016 351.033 120.866 349.908 120.866 348.625C120.866 347.025 121.05 345.667 121.416 344.55C121.783 343.417 122.275 342.5 122.891 341.8C123.508 341.083 124.216 340.567 125.016 340.25C125.833 339.917 126.675 339.75 127.541 339.75C128.525 339.75 129.375 339.917 130.091 340.25C130.825 340.567 131.458 340.967 131.991 341.45L130.841 342.725C130.425 342.342 129.941 342.042 129.391 341.825C128.841 341.592 128.266 341.475 127.666 341.475C127.033 341.475 126.425 341.592 125.841 341.825C125.258 342.058 124.741 342.442 124.291 342.975C123.858 343.508 123.5 344.217 123.216 345.1C122.95 345.967 122.808 347.042 122.791 348.325C123.441 347.692 124.158 347.192 124.941 346.825C125.725 346.442 126.516 346.25 127.316 346.25C128.05 346.25 128.716 346.358 129.316 346.575C129.933 346.775 130.458 347.083 130.891 347.5C131.341 347.9 131.683 348.408 131.916 349.025C132.166 349.642 132.291 350.358 132.291 351.175C132.291 351.942 132.141 352.642 131.841 353.275C131.558 353.892 131.175 354.425 130.691 354.875C130.208 355.325 129.641 355.675 128.991 355.925C128.358 356.175 127.683 356.3 126.966 356.3ZM126.966 354.675C127.433 354.675 127.875 354.592 128.291 354.425C128.708 354.258 129.066 354.025 129.366 353.725C129.666 353.408 129.9 353.042 130.066 352.625C130.25 352.192 130.341 351.708 130.341 351.175C130.341 350.075 130.05 349.242 129.466 348.675C128.883 348.092 128.041 347.8 126.941 347.8C126.308 347.8 125.625 347.967 124.891 348.3C124.175 348.633 123.5 349.183 122.866 349.95C123.016 351.5 123.441 352.675 124.141 353.475C124.858 354.275 125.8 354.675 126.966 354.675ZM140.707 356.3C139.907 356.3 139.182 356.158 138.532 355.875C137.898 355.592 137.348 355.183 136.882 354.65C136.415 354.1 136.057 353.433 135.807 352.65C135.557 351.867 135.432 350.967 135.432 349.95C135.432 348.967 135.582 348.083 135.882 347.3C136.198 346.5 136.607 345.825 137.107 345.275C137.623 344.725 138.215 344.3 138.882 344C139.548 343.7 140.24 343.55 140.957 343.55C141.69 343.55 142.34 343.692 142.907 343.975C143.49 344.242 144.048 344.625 144.582 345.125H144.657L144.557 342.875V338.2H146.607V356H144.907L144.732 354.4H144.657C144.157 354.917 143.557 355.367 142.857 355.75C142.173 356.117 141.457 356.3 140.707 356.3ZM141.132 354.575C142.332 354.575 143.473 353.967 144.557 352.75V346.7C144.007 346.183 143.465 345.817 142.932 345.6C142.415 345.383 141.89 345.275 141.357 345.275C140.823 345.275 140.323 345.392 139.857 345.625C139.407 345.842 139.007 346.158 138.657 346.575C138.323 346.975 138.057 347.458 137.857 348.025C137.657 348.592 137.557 349.225 137.557 349.925C137.557 351.392 137.865 352.533 138.482 353.35C139.115 354.167 139.998 354.575 141.132 354.575ZM158.772 356.3C157.889 356.3 157.147 356.183 156.547 355.95C155.947 355.7 155.464 355.358 155.097 354.925C154.73 354.475 154.464 353.942 154.297 353.325C154.147 352.708 154.072 352.025 154.072 351.275V345.525H150.647V343.975L154.147 343.85L154.422 339.95H156.122V343.85H162.097V345.525H156.122V351.3C156.122 351.85 156.172 352.333 156.272 352.75C156.372 353.15 156.539 353.492 156.772 353.775C157.005 354.058 157.322 354.275 157.722 354.425C158.122 354.558 158.614 354.625 159.197 354.625C159.78 354.625 160.305 354.575 160.772 354.475C161.239 354.375 161.689 354.242 162.122 354.075L162.572 355.575C162.022 355.775 161.439 355.942 160.822 356.075C160.222 356.225 159.539 356.3 158.772 356.3ZM166.037 348.525V346.975H176.787V348.525H166.037ZM186.402 356.3C184.619 356.3 183.219 355.583 182.202 354.15C181.186 352.7 180.677 350.642 180.677 347.975C180.677 345.292 181.186 343.25 182.202 341.85C183.219 340.45 184.619 339.75 186.402 339.75C188.186 339.75 189.586 340.45 190.602 341.85C191.619 343.25 192.127 345.292 192.127 347.975C192.127 350.642 191.619 352.7 190.602 354.15C189.586 355.583 188.186 356.3 186.402 356.3ZM186.402 354.65C187.519 354.65 188.427 354.108 189.127 353.025C189.844 351.942 190.202 350.258 190.202 347.975C190.202 346.825 190.111 345.842 189.927 345.025C189.744 344.192 189.477 343.508 189.127 342.975C188.794 342.425 188.394 342.025 187.927 341.775C187.461 341.525 186.952 341.4 186.402 341.4C185.852 341.4 185.344 341.525 184.877 341.775C184.411 342.025 184.002 342.425 183.652 342.975C183.319 343.508 183.061 344.192 182.877 345.025C182.694 345.842 182.602 346.825 182.602 347.975C182.602 350.258 182.952 351.942 183.652 353.025C184.369 354.108 185.286 354.65 186.402 354.65ZM186.402 349.475C185.986 349.475 185.619 349.333 185.302 349.05C185.002 348.75 184.852 348.333 184.852 347.8C184.852 347.283 185.002 346.883 185.302 346.6C185.619 346.3 185.986 346.15 186.402 346.15C186.819 346.15 187.177 346.3 187.477 346.6C187.794 346.883 187.952 347.283 187.952 347.8C187.952 348.333 187.794 348.75 187.477 349.05C187.177 349.333 186.819 349.475 186.402 349.475ZM195.243 356L200.143 347.525L195.568 339.6H197.868L200.168 343.8C200.384 344.183 200.593 344.558 200.793 344.925C200.993 345.275 201.226 345.692 201.493 346.175H201.593C201.826 345.692 202.026 345.275 202.193 344.925C202.376 344.558 202.568 344.183 202.768 343.8L205.018 339.6H207.218L202.643 347.625L207.543 356H205.243L202.768 351.575C202.534 351.175 202.301 350.767 202.068 350.35C201.851 349.917 201.601 349.45 201.318 348.95H201.218C200.984 349.45 200.759 349.917 200.543 350.35C200.326 350.767 200.109 351.175 199.893 351.575L197.443 356H195.243ZM210.933 356V339.6H213.233L218.483 349.9L220.058 353.3H220.108C220.074 352.483 220.016 351.633 219.933 350.75C219.866 349.85 219.833 348.967 219.833 348.1V339.6H221.833V356H219.533L214.283 345.7L212.708 342.3H212.658C212.691 343.15 212.741 344.008 212.808 344.875C212.891 345.725 212.933 346.575 212.933 347.425V356H210.933ZM227.823 347.2L227.198 341.575L227.148 338.825H229.898L229.848 341.575L229.223 347.2H227.823ZM233.548 347.2L232.923 341.575L232.873 338.825H235.623L235.573 341.575L234.948 347.2H233.548ZM256.329 360L264.529 338.25H266.379L258.179 360H256.329ZM271.519 354.8V352.825L279.044 347.75V347.65L271.519 342.575V340.6L280.844 346.925V348.475L271.519 354.8Z" fill="#3A3232"/>
<path d="M3.85065 4.0554L2.5671 10.5048C2.51592 10.7626 2.53238 11.0265 2.61533 11.2784C2.69828 11.5303 2.84574 11.7641 3.04746 11.9634C3.24919 12.1628 3.50033 12.323 3.78346 12.433C4.06659 12.5429 4.37491 12.5999 4.68701 12.6H6.60695C7.20619 12.6 7.79357 12.4602 8.30321 12.1963C8.81285 11.9324 9.2246 11.5549 9.49226 11.106L10.75 9L12.0078 11.106C12.2754 11.5549 12.6872 11.9324 13.1968 12.1963C13.7064 12.4602 14.2938 12.6 14.8931 12.6H17.357C17.9562 12.6 18.5436 12.4602 19.0532 12.1963C19.5629 11.9324 19.9746 11.5549 20.2423 11.106L21.5 9L22.7578 11.106C23.0254 11.5549 23.4372 11.9324 23.9468 12.1963C24.4564 12.4602 25.0438 12.6 25.6431 12.6H28.107C28.7062 12.6 29.2936 12.4602 29.8032 12.1963C30.3129 11.9324 30.7246 11.5549 30.9923 11.106L32.25 9L33.5078 11.106C33.7754 11.5549 34.1872 11.9324 34.6968 12.1963C35.2064 12.4602 35.7938 12.6 36.3931 12.6H38.313C38.6251 12.5999 38.9334 12.5429 39.2165 12.433C39.4997 12.323 39.7508 12.1628 39.9526 11.9634C40.1543 11.7641 40.3017 11.5303 40.3847 11.2784C40.4676 11.0265 40.4841 10.7626 40.4329 10.5048L39.1494 4.0554C39.0236 3.42497 38.6349 2.85232 38.0522 2.43934C37.4696 2.02635 36.7308 1.7998 35.9674 1.8H7.03265C6.26922 1.7998 5.53046 2.02635 4.9478 2.43934C4.36514 2.85232 3.97637 3.42497 3.85065 4.0554Z" fill="#30A876"/>
<path d="M38.7 16.2H4.3V31.5C4.3 32.2161 4.63978 32.9028 5.24458 33.4092C5.84939 33.9155 6.66968 34.2 7.525 34.2H15.05V21.6H27.95V34.2H35.475C36.3303 34.2 37.1506 33.9155 37.7554 33.4092C38.3602 32.9028 38.7 32.2161 38.7 31.5V16.2Z" fill="#30A876"/>
<g clip-path="url(#clip0_15_603)">
<path fill-rule="evenodd" clip-rule="evenodd" d="M366.885 19.9991C363.466 12.7861 356.89 9.4975 350.317 9.7864C343.821 10.0699 337.69 13.8391 335.091 20.0504L334.902 20.5L335.091 20.9495C337.69 27.1609 343.819 30.9301 350.317 31.2136C356.89 31.5011 363.466 28.2139 366.885 21.0008L367.123 20.5L366.885 19.9991ZM351 27.25C353.122 27.25 355.157 26.5388 356.657 25.273C358.157 24.0071 359 22.2902 359 20.5C359 18.7098 358.157 16.9929 356.657 15.727C355.157 14.4612 353.122 13.75 351 13.75C348.878 13.75 346.843 14.4612 345.343 15.727C343.843 16.9929 343 18.7098 343 20.5C343 22.2902 343.843 24.0071 345.343 25.273C346.843 26.5388 348.878 27.25 351 27.25Z" fill="#5C5F62"/>
<path d="M351 24.55C353.651 24.55 355.8 22.7368 355.8 20.5C355.8 18.2632 353.651 16.45 351 16.45C348.349 16.45 346.2 18.2632 346.2 20.5C346.2 22.7368 348.349 24.55 351 24.55Z" fill="#5C5F62"/>
</g>
<path d="M77.4448 19.0522C77.4448 22.0063 76.7124 24.2769 75.2476 25.8638C73.7827 27.4507 71.6831 28.2441 68.9487 28.2441C66.2144 28.2441 64.1147 27.4507 62.6499 25.8638C61.1851 24.2769 60.4526 21.9982 60.4526 19.0278C60.4526 16.0575 61.1851 13.791 62.6499 12.2285C64.1229 10.6579 66.2306 9.87256 68.9731 9.87256C71.7157 9.87256 73.8112 10.6619 75.2598 12.2407C76.7165 13.8195 77.4448 16.09 77.4448 19.0522ZM64.4199 19.0522C64.4199 21.0461 64.7983 22.5475 65.5552 23.5566C66.312 24.5658 67.4432 25.0703 68.9487 25.0703C71.9679 25.0703 73.4775 23.0643 73.4775 19.0522C73.4775 15.0321 71.9761 13.022 68.9731 13.022C67.4676 13.022 66.3324 13.5306 65.5674 14.5479C64.8024 15.557 64.4199 17.0584 64.4199 19.0522ZM93.4482 28H89.7251V20.0288C89.7251 19.0441 89.5501 18.3076 89.2002 17.8193C88.8503 17.3229 88.2928 17.0747 87.5278 17.0747C86.4862 17.0747 85.7334 17.4246 85.2695 18.1245C84.8057 18.8162 84.5737 19.9678 84.5737 21.5791V28H80.8506V14.3525H83.6948L84.1953 16.0981H84.4028C84.8179 15.439 85.3875 14.9425 86.1118 14.6089C86.8442 14.2671 87.6743 14.0962 88.6021 14.0962C90.189 14.0962 91.3934 14.5275 92.2153 15.3901C93.0373 16.2446 93.4482 17.4816 93.4482 19.1011V28ZM101.004 28H97.2812V9.00586H101.004V28ZM104.764 10.8247C104.764 9.61214 105.44 9.00586 106.791 9.00586C108.141 9.00586 108.817 9.61214 108.817 10.8247C108.817 11.4025 108.646 11.8542 108.304 12.1797C107.971 12.4971 107.466 12.6558 106.791 12.6558C105.44 12.6558 104.764 12.0454 104.764 10.8247ZM108.646 28H104.923V14.3525H108.646V28ZM125.162 28H121.439V20.0288C121.439 19.0441 121.264 18.3076 120.914 17.8193C120.564 17.3229 120.007 17.0747 119.242 17.0747C118.2 17.0747 117.447 17.4246 116.983 18.1245C116.52 18.8162 116.288 19.9678 116.288 21.5791V28H112.564V14.3525H115.409L115.909 16.0981H116.117C116.532 15.439 117.101 14.9425 117.826 14.6089C118.558 14.2671 119.388 14.0962 120.316 14.0962C121.903 14.0962 123.107 14.5275 123.929 15.3901C124.751 16.2446 125.162 17.4816 125.162 19.1011V28ZM134.647 16.7451C133.858 16.7451 133.239 16.9974 132.792 17.502C132.344 17.9984 132.088 18.7064 132.022 19.626H137.247C137.231 18.7064 136.991 17.9984 136.527 17.502C136.063 16.9974 135.436 16.7451 134.647 16.7451ZM135.172 28.2441C132.975 28.2441 131.257 27.6379 130.021 26.4253C128.784 25.2127 128.165 23.4956 128.165 21.2739C128.165 18.9871 128.735 17.2212 129.874 15.9761C131.021 14.7228 132.604 14.0962 134.623 14.0962C136.551 14.0962 138.053 14.6455 139.127 15.7441C140.201 16.8428 140.738 18.3605 140.738 20.2974V22.104H131.937C131.978 23.1619 132.291 23.988 132.877 24.582C133.463 25.1761 134.285 25.4731 135.343 25.4731C136.165 25.4731 136.942 25.3877 137.674 25.2168C138.407 25.0459 139.172 24.7733 139.969 24.3989V27.2798C139.318 27.6053 138.622 27.8454 137.882 28C137.141 28.1628 136.238 28.2441 135.172 28.2441ZM159.781 23.9473C159.781 25.347 159.293 26.4131 158.316 27.1455C157.348 27.8779 155.895 28.2441 153.958 28.2441C152.966 28.2441 152.119 28.175 151.419 28.0366C150.72 27.9064 150.064 27.7111 149.454 27.4507V24.3745C150.146 24.7 150.923 24.9727 151.786 25.1924C152.656 25.4121 153.421 25.522 154.081 25.522C155.431 25.522 156.107 25.1313 156.107 24.3501C156.107 24.0571 156.017 23.8211 155.838 23.6421C155.659 23.4549 155.35 23.2474 154.911 23.0195C154.471 22.7835 153.885 22.5109 153.153 22.2017C152.103 21.7622 151.33 21.3553 150.833 20.981C150.345 20.6066 149.987 20.1794 149.759 19.6992C149.54 19.2109 149.43 18.6128 149.43 17.9048C149.43 16.6922 149.898 15.7563 150.833 15.0972C151.778 14.4299 153.112 14.0962 154.837 14.0962C156.481 14.0962 158.08 14.4543 159.635 15.1704L158.512 17.856C157.828 17.563 157.189 17.3229 156.595 17.1357C156.001 16.9486 155.395 16.855 154.776 16.855C153.678 16.855 153.128 17.152 153.128 17.7461C153.128 18.0798 153.303 18.3687 153.653 18.6128C154.011 18.8569 154.789 19.2191 155.985 19.6992C157.051 20.1305 157.832 20.5334 158.329 20.9077C158.825 21.2821 159.191 21.7134 159.427 22.2017C159.663 22.6899 159.781 23.2718 159.781 23.9473ZM168.436 25.2778C169.087 25.2778 169.868 25.1354 170.78 24.8506V27.6216C169.852 28.0366 168.713 28.2441 167.362 28.2441C165.873 28.2441 164.786 27.8698 164.103 27.1211C163.427 26.3643 163.089 25.2331 163.089 23.7275V17.1479H161.307V15.5732L163.358 14.3281L164.432 11.4473H166.812V14.3525H170.633V17.1479H166.812V23.7275C166.812 24.2565 166.959 24.6471 167.252 24.8994C167.553 25.1517 167.948 25.2778 168.436 25.2778ZM176.517 21.1519C176.517 22.5028 176.737 23.5241 177.176 24.2158C177.624 24.9076 178.348 25.2534 179.349 25.2534C180.342 25.2534 181.054 24.9116 181.485 24.228C181.925 23.5363 182.145 22.5109 182.145 21.1519C182.145 19.8009 181.925 18.7878 181.485 18.1123C181.046 17.4368 180.326 17.0991 179.325 17.0991C178.332 17.0991 177.616 17.4368 177.176 18.1123C176.737 18.7796 176.517 19.7928 176.517 21.1519ZM185.953 21.1519C185.953 23.3735 185.367 25.111 184.195 26.3643C183.023 27.6175 181.392 28.2441 179.3 28.2441C177.99 28.2441 176.834 27.9593 175.833 27.3896C174.833 26.8118 174.063 25.9858 173.526 24.9116C172.989 23.8374 172.721 22.5841 172.721 21.1519C172.721 18.922 173.303 17.1886 174.466 15.9517C175.63 14.7147 177.266 14.0962 179.374 14.0962C180.684 14.0962 181.839 14.381 182.84 14.9507C183.841 15.5203 184.61 16.3382 185.147 17.4043C185.685 18.4704 185.953 19.7196 185.953 21.1519ZM196.646 14.0962C197.151 14.0962 197.57 14.1328 197.904 14.2061L197.623 17.6973C197.322 17.6159 196.956 17.5752 196.524 17.5752C195.336 17.5752 194.409 17.8804 193.741 18.4907C193.082 19.1011 192.752 19.9556 192.752 21.0542V28H189.029V14.3525H191.849L192.398 16.6475H192.582C193.005 15.8825 193.574 15.2681 194.291 14.8042C195.015 14.3322 195.8 14.0962 196.646 14.0962ZM206.034 16.7451C205.244 16.7451 204.626 16.9974 204.178 17.502C203.731 17.9984 203.474 18.7064 203.409 19.626H208.634C208.618 18.7064 208.377 17.9984 207.914 17.502C207.45 16.9974 206.823 16.7451 206.034 16.7451ZM206.559 28.2441C204.361 28.2441 202.644 27.6379 201.407 26.4253C200.17 25.2127 199.552 23.4956 199.552 21.2739C199.552 18.9871 200.121 17.2212 201.261 15.9761C202.408 14.7228 203.991 14.0962 206.009 14.0962C207.938 14.0962 209.439 14.6455 210.514 15.7441C211.588 16.8428 212.125 18.3605 212.125 20.2974V22.104H203.324C203.364 23.1619 203.678 23.988 204.264 24.582C204.85 25.1761 205.672 25.4731 206.729 25.4731C207.551 25.4731 208.329 25.3877 209.061 25.2168C209.793 25.0459 210.558 24.7733 211.356 24.3989V27.2798C210.705 27.6053 210.009 27.8454 209.269 28C208.528 28.1628 207.625 28.2441 206.559 28.2441Z" fill="black"/>
<path d="M73.8267 158.046C72.4025 158.046 71.2998 158.583 70.5186 159.658C69.7373 160.724 69.3467 162.213 69.3467 164.125C69.3467 168.105 70.84 170.095 73.8267 170.095C75.0799 170.095 76.5977 169.781 78.3799 169.155V172.329C76.915 172.939 75.2793 173.244 73.4727 173.244C70.8766 173.244 68.891 172.459 67.5156 170.888C66.1403 169.309 65.4526 167.047 65.4526 164.101C65.4526 162.246 65.7904 160.622 66.4658 159.23C67.1413 157.831 68.1097 156.761 69.3711 156.02C70.6406 155.271 72.1258 154.897 73.8267 154.897C75.5601 154.897 77.3016 155.316 79.0513 156.154L77.8306 159.23C77.1632 158.913 76.4919 158.636 75.8164 158.4C75.141 158.164 74.4777 158.046 73.8267 158.046ZM84.8618 166.152C84.8618 167.503 85.0815 168.524 85.521 169.216C85.9686 169.908 86.6929 170.253 87.6938 170.253C88.6867 170.253 89.3988 169.912 89.8301 169.228C90.2695 168.536 90.4893 167.511 90.4893 166.152C90.4893 164.801 90.2695 163.788 89.8301 163.112C89.3906 162.437 88.6704 162.099 87.6694 162.099C86.6766 162.099 85.9604 162.437 85.521 163.112C85.0815 163.78 84.8618 164.793 84.8618 166.152ZM94.2979 166.152C94.2979 168.374 93.7119 170.111 92.54 171.364C91.3682 172.618 89.7365 173.244 87.645 173.244C86.3348 173.244 85.1792 172.959 84.1782 172.39C83.1772 171.812 82.4082 170.986 81.8711 169.912C81.334 168.837 81.0654 167.584 81.0654 166.152C81.0654 163.922 81.6473 162.189 82.811 160.952C83.9748 159.715 85.6105 159.096 87.7183 159.096C89.0285 159.096 90.1841 159.381 91.1851 159.951C92.186 160.52 92.9551 161.338 93.4922 162.404C94.0293 163.47 94.2979 164.72 94.2979 166.152ZM101.695 173.244C100.092 173.244 98.8307 172.622 97.9111 171.376C96.9997 170.131 96.5439 168.406 96.5439 166.201C96.5439 163.963 97.0078 162.221 97.9355 160.976C98.8714 159.723 100.157 159.096 101.793 159.096C103.51 159.096 104.82 159.764 105.724 161.098H105.846C105.659 160.081 105.565 159.174 105.565 158.376V154.006H109.3V173H106.444L105.724 171.23H105.565C104.719 172.573 103.429 173.244 101.695 173.244ZM103.001 170.278C103.954 170.278 104.649 170.001 105.089 169.448C105.536 168.894 105.781 167.954 105.821 166.628V166.225C105.821 164.76 105.593 163.71 105.138 163.076C104.69 162.441 103.958 162.124 102.94 162.124C102.11 162.124 101.463 162.478 101 163.186C100.544 163.885 100.316 164.907 100.316 166.25C100.316 167.592 100.548 168.601 101.012 169.277C101.476 169.944 102.139 170.278 103.001 170.278ZM118.846 161.745C118.057 161.745 117.438 161.997 116.991 162.502C116.543 162.998 116.287 163.706 116.222 164.626H121.446C121.43 163.706 121.19 162.998 120.726 162.502C120.262 161.997 119.636 161.745 118.846 161.745ZM119.371 173.244C117.174 173.244 115.457 172.638 114.22 171.425C112.983 170.213 112.364 168.496 112.364 166.274C112.364 163.987 112.934 162.221 114.073 160.976C115.221 159.723 116.804 159.096 118.822 159.096C120.75 159.096 122.252 159.646 123.326 160.744C124.4 161.843 124.938 163.361 124.938 165.297V167.104H116.136C116.177 168.162 116.49 168.988 117.076 169.582C117.662 170.176 118.484 170.473 119.542 170.473C120.364 170.473 121.141 170.388 121.874 170.217C122.606 170.046 123.371 169.773 124.168 169.399V172.28C123.517 172.605 122.822 172.845 122.081 173C121.34 173.163 120.437 173.244 119.371 173.244Z" fill="black"/>
<path d="M72.7695 109.354C72.7695 111.16 72.151 112.552 70.9141 113.528C69.6852 114.497 67.9233 114.981 65.6284 114.981H63.5288V122H61.4536V104.153H66.0801C70.5397 104.153 72.7695 105.887 72.7695 109.354ZM63.5288 113.199H65.3965C67.2357 113.199 68.5662 112.902 69.3882 112.308C70.2101 111.714 70.6211 110.761 70.6211 109.451C70.6211 108.271 70.2345 107.392 69.4614 106.814C68.6883 106.237 67.4839 105.948 65.8481 105.948H63.5288V113.199ZM84.4395 122L84.0366 120.096H83.939C83.2716 120.934 82.6043 121.504 81.937 121.805C81.2778 122.098 80.4518 122.244 79.459 122.244C78.1325 122.244 77.0908 121.902 76.334 121.219C75.5853 120.535 75.2109 119.563 75.2109 118.301C75.2109 115.599 77.3716 114.183 81.6929 114.053L83.9634 113.98V113.15C83.9634 112.1 83.7355 111.327 83.2798 110.831C82.8322 110.326 82.112 110.074 81.1191 110.074C80.0042 110.074 78.7428 110.416 77.335 111.099L76.7124 109.549C77.3716 109.191 78.0918 108.91 78.873 108.707C79.6624 108.503 80.4518 108.401 81.2412 108.401C82.8363 108.401 84.0163 108.755 84.7812 109.463C85.5544 110.171 85.9409 111.307 85.9409 112.869V122H84.4395ZM79.8618 120.572C81.1232 120.572 82.112 120.226 82.8281 119.534C83.5524 118.842 83.9146 117.874 83.9146 116.629V115.42L81.8882 115.506C80.2769 115.563 79.1131 115.815 78.397 116.263C77.689 116.702 77.335 117.39 77.335 118.326C77.335 119.058 77.5547 119.616 77.9941 119.998C78.4417 120.381 79.0643 120.572 79.8618 120.572ZM101.078 108.621V109.903L98.5996 110.196C98.8275 110.481 99.0309 110.855 99.21 111.319C99.389 111.775 99.4785 112.291 99.4785 112.869C99.4785 114.179 99.0309 115.225 98.1357 116.006C97.2406 116.788 96.0117 117.178 94.4492 117.178C94.0505 117.178 93.6761 117.146 93.3262 117.081C92.4635 117.536 92.0322 118.11 92.0322 118.802C92.0322 119.168 92.1828 119.441 92.4839 119.62C92.785 119.791 93.3018 119.876 94.0342 119.876H96.4023C97.8509 119.876 98.9618 120.181 99.7349 120.792C100.516 121.402 100.907 122.289 100.907 123.453C100.907 124.934 100.313 126.061 99.1245 126.834C97.9364 127.615 96.203 128.006 93.9243 128.006C92.1746 128.006 90.8237 127.68 89.8716 127.029C88.9276 126.378 88.4556 125.459 88.4556 124.271C88.4556 123.457 88.716 122.753 89.2368 122.159C89.7576 121.565 90.4901 121.162 91.4341 120.95C91.0923 120.796 90.8034 120.556 90.5674 120.23C90.3395 119.904 90.2256 119.526 90.2256 119.095C90.2256 118.606 90.3558 118.179 90.6162 117.813C90.8766 117.447 91.2876 117.093 91.8491 116.751C91.1574 116.466 90.5918 115.982 90.1523 115.298C89.721 114.615 89.5054 113.833 89.5054 112.955C89.5054 111.49 89.9448 110.363 90.8237 109.573C91.7026 108.776 92.9478 108.377 94.5591 108.377C95.259 108.377 95.8896 108.458 96.4512 108.621H101.078ZM90.4087 124.246C90.4087 124.97 90.7139 125.52 91.3242 125.894C91.9346 126.268 92.8094 126.456 93.9487 126.456C95.6496 126.456 96.9069 126.199 97.7207 125.687C98.5426 125.182 98.9536 124.494 98.9536 123.624C98.9536 122.899 98.7298 122.395 98.2822 122.11C97.8346 121.833 96.9924 121.695 95.7554 121.695H93.3262C92.4066 121.695 91.6904 121.915 91.1777 122.354C90.665 122.793 90.4087 123.424 90.4087 124.246ZM91.5073 112.906C91.5073 113.842 91.7718 114.55 92.3008 115.03C92.8298 115.51 93.5662 115.75 94.5103 115.75C96.4878 115.75 97.4766 114.79 97.4766 112.869C97.4766 110.859 96.4756 109.854 94.4736 109.854C93.5215 109.854 92.7891 110.11 92.2764 110.623C91.7637 111.136 91.5073 111.897 91.5073 112.906ZM109.476 122.244C107.499 122.244 105.936 121.642 104.789 120.438C103.649 119.233 103.08 117.561 103.08 115.42C103.08 113.264 103.609 111.551 104.667 110.281C105.733 109.012 107.161 108.377 108.951 108.377C110.628 108.377 111.954 108.93 112.931 110.037C113.907 111.136 114.396 112.588 114.396 114.395V115.677H105.179C105.22 117.247 105.615 118.44 106.363 119.253C107.12 120.067 108.182 120.474 109.549 120.474C110.99 120.474 112.414 120.173 113.822 119.571V121.377C113.106 121.687 112.426 121.906 111.783 122.037C111.148 122.175 110.379 122.244 109.476 122.244ZM108.927 110.074C107.853 110.074 106.994 110.424 106.351 111.124C105.716 111.823 105.342 112.792 105.228 114.029H112.223C112.223 112.751 111.938 111.775 111.368 111.099C110.799 110.416 109.985 110.074 108.927 110.074ZM126.493 118.35C126.493 119.595 126.029 120.556 125.101 121.231C124.173 121.906 122.871 122.244 121.195 122.244C119.421 122.244 118.037 121.963 117.044 121.402V119.522C117.687 119.847 118.375 120.104 119.107 120.291C119.848 120.478 120.56 120.572 121.244 120.572C122.302 120.572 123.115 120.405 123.685 120.071C124.255 119.729 124.54 119.213 124.54 118.521C124.54 118 124.312 117.557 123.856 117.19C123.408 116.816 122.529 116.377 121.219 115.872C119.974 115.408 119.087 115.005 118.558 114.664C118.037 114.314 117.647 113.919 117.386 113.479C117.134 113.04 117.008 112.515 117.008 111.905C117.008 110.814 117.451 109.956 118.338 109.329C119.225 108.694 120.442 108.377 121.988 108.377C123.429 108.377 124.837 108.67 126.212 109.256L125.492 110.904C124.149 110.35 122.932 110.074 121.842 110.074C120.882 110.074 120.157 110.224 119.669 110.525C119.181 110.826 118.937 111.242 118.937 111.771C118.937 112.129 119.026 112.434 119.205 112.686C119.392 112.938 119.689 113.178 120.096 113.406C120.503 113.634 121.284 113.964 122.44 114.395C124.027 114.973 125.097 115.555 125.65 116.141C126.212 116.727 126.493 117.463 126.493 118.35Z" fill="black"/>
<g clip-path="url(#clip1_15_603)">
<path d="M12.8726 162.473C13.0401 162.306 13.1729 162.107 13.2634 161.889C13.3539 161.671 13.4003 161.436 13.4 161.2V154C13.4 153.523 13.5896 153.065 13.9272 152.727C14.2648 152.39 14.7226 152.2 15.2 152.2C15.6774 152.2 16.1352 152.01 16.4728 151.673C16.8104 151.335 17 150.877 17 150.4C17 149.923 16.8104 149.465 16.4728 149.127C16.1352 148.79 15.6774 148.6 15.2 148.6C12.2228 148.6 9.8 151.023 9.8 154V160.455L8.5274 161.727C8.3601 161.894 8.22737 162.093 8.13681 162.311C8.04625 162.53 7.99964 162.764 7.99964 163C7.99964 163.236 8.04625 163.47 8.13681 163.689C8.22737 163.907 8.3601 164.106 8.5274 164.273L9.8 165.545V172C9.8 174.977 12.2228 177.4 15.2 177.4C15.6774 177.4 16.1352 177.21 16.4728 176.873C16.8104 176.535 17 176.077 17 175.6C17 175.123 16.8104 174.665 16.4728 174.327C16.1352 173.99 15.6774 173.8 15.2 173.8C14.7226 173.8 14.2648 173.61 13.9272 173.273C13.5896 172.935 13.4 172.477 13.4 172V164.8C13.4003 164.564 13.3539 164.329 13.2634 164.111C13.1729 163.893 13.0401 163.694 12.8726 163.527L12.3452 163L12.8726 162.473ZM43.8632 162.311C43.7725 162.092 43.6398 161.894 43.4726 161.727L42.2 160.455V154C42.2 151.023 39.7772 148.6 36.8 148.6C36.3226 148.6 35.8648 148.79 35.5272 149.127C35.1896 149.465 35 149.923 35 150.4C35 150.877 35.1896 151.335 35.5272 151.673C35.8648 152.01 36.3226 152.2 36.8 152.2C37.2774 152.2 37.7352 152.39 38.0728 152.727C38.4104 153.065 38.6 153.523 38.6 154V161.2C38.5998 161.436 38.6462 161.671 38.7367 161.889C38.8272 162.107 38.96 162.306 39.1274 162.473L39.6548 163L39.1274 163.527C38.9599 163.694 38.8271 163.893 38.7366 164.111C38.6461 164.329 38.5997 164.564 38.6 164.8V172C38.6 172.477 38.4104 172.935 38.0728 173.273C37.7352 173.61 37.2774 173.8 36.8 173.8C36.3226 173.8 35.8648 173.99 35.5272 174.327C35.1896 174.665 35 175.123 35 175.6C35 176.077 35.1896 176.535 35.5272 176.873C35.8648 177.21 36.3226 177.4 36.8 177.4C39.7772 177.4 42.2 174.977 42.2 172V165.545L43.4726 164.273C43.7243 164.021 43.8957 163.7 43.9652 163.351C44.0347 163.002 43.9992 162.64 43.8632 162.311ZM30.8546 154.511C30.6422 154.304 30.382 154.153 30.0971 154.07C29.8122 153.988 29.5113 153.977 29.2211 154.038C28.931 154.1 28.6605 154.232 28.4337 154.423C28.2068 154.614 28.0306 154.859 27.9206 155.134L20.7278 169.534C20.6402 169.754 20.5967 169.988 20.5999 170.225C20.6032 170.461 20.6531 170.695 20.7467 170.912C20.8403 171.129 20.9759 171.326 21.1456 171.491C21.3153 171.655 21.5159 171.785 21.7358 171.872C22.1797 172.048 22.675 172.041 23.1139 171.853C23.5528 171.665 23.8998 171.312 24.0794 170.87L31.2704 156.47C31.4037 156.139 31.4355 155.776 31.3618 155.427C31.2881 155.079 31.1121 154.76 30.8564 154.511H30.8546Z" fill="#5C5F62"/>
</g>
<rect x="347" y="231" width="50" height="50" rx="4" fill="white" stroke="#5C5F62" stroke-width="2"/>
<rect x="29" y="230" width="52" height="52" rx="5" fill="#5C5F62"/>
<path d="M371.196 263.522L359.074 258.175V256.43L371.196 250.375V253.305L362.846 257.174L371.196 260.604V263.522ZM373.356 260.604L381.706 257.174L373.356 253.305V250.375L385.478 256.43V258.175L373.356 263.522V260.604Z" fill="#5C5F62"/>
<path d="M49.2461 248.153H54.8003C57.3312 248.153 59.1663 248.515 60.3057 249.24C61.4531 249.956 62.0269 251.099 62.0269 252.67C62.0269 253.736 61.7746 254.611 61.27 255.294C60.7736 255.978 60.1104 256.389 59.2803 256.527V256.649C60.4115 256.902 61.2253 257.374 61.7217 258.065C62.2262 258.757 62.4785 259.677 62.4785 260.824C62.4785 262.452 61.8885 263.721 60.7085 264.633C59.5366 265.544 57.9416 266 55.9233 266H49.2461V248.153ZM53.0303 255.221H55.2275C56.2529 255.221 56.9935 255.062 57.4492 254.745C57.9131 254.428 58.145 253.903 58.145 253.17C58.145 252.487 57.8927 251.999 57.3882 251.706C56.8918 251.404 56.1024 251.254 55.02 251.254H53.0303V255.221ZM53.0303 258.224V262.875H55.4961C56.5378 262.875 57.3068 262.676 57.8032 262.277C58.2996 261.878 58.5479 261.268 58.5479 260.446C58.5479 258.965 57.4899 258.224 55.374 258.224H53.0303Z" fill="white"/>
<rect x="147" y="230" width="52" height="52" rx="5" fill="#5C5F62"/>
<path d="M180.772 248.153V259.701C180.772 261.02 180.475 262.175 179.881 263.168C179.295 264.161 178.445 264.922 177.33 265.451C176.215 265.98 174.897 266.244 173.375 266.244C171.08 266.244 169.298 265.658 168.028 264.486C166.759 263.306 166.124 261.695 166.124 259.652V248.153H169.896V259.079C169.896 260.454 170.173 261.463 170.726 262.106C171.279 262.749 172.195 263.07 173.473 263.07C174.71 263.07 175.605 262.749 176.158 262.106C176.72 261.455 177 260.438 177 259.054V248.153H180.772Z" fill="white"/>
<path d="M164 268.502H182.896V269.748H164V268.502Z" fill="white"/>
<rect x="88" y="230" width="52" height="52" rx="5" fill="#5C5F62"/>
<path d="M110.647 266L114.456 248.153H118.179L114.37 266H110.647Z" fill="white"/>
<defs>
<filter id="filter0_d_15_603" x="0" y="207" width="423" height="187" filterUnits="userSpaceOnUse" color-interpolation-filters="sRGB">
<feFlood flood-opacity="0" result="BackgroundImageFix"/>
<feColorMatrix in="SourceAlpha" type="matrix" values="0 0 0 0 0 0 0 0 0 0 0 0 0 0 0 0 0 0 127 0" result="hardAlpha"/>
<feOffset/>
<feGaussianBlur stdDeviation="2.5"/>
<feComposite in2="hardAlpha" operator="out"/>
<feColorMatrix type="matrix" values="0 0 0 0 0.733333 0 0 0 0 0.733333 0 0 0 0 0.733333 0 0 0 0.25 0"/>
<feBlend mode="normal" in2="BackgroundImageFix" result="effect1_dropShadow_15_603"/>
<feBlend mode="normal" in="SourceGraphic" in2="effect1_dropShadow_15_603" result="shape"/>
</filter>
<clipPath id="clip0_15_603">
<rect width="32" height="27" fill="white" transform="translate(335 7)"/>
</clipPath>
<clipPath id="clip1_15_603">
<rect width="36" height="36" fill="white" transform="translate(8 145)"/>
</clipPath>
</defs>
</svg>
