<svg width="343" height="333" viewBox="0 0 343 333" fill="none" xmlns="http://www.w3.org/2000/svg">
<rect width="343" height="333" rx="29" fill="#552CF5" fill-opacity="0.76"/>
<path d="M130.22 130.225V130.277" stroke="white" stroke-width="8" stroke-linecap="round" stroke-linejoin="round"/>
<path d="M150.88 130.225V130.277" stroke="white" stroke-width="8" stroke-linecap="round" stroke-linejoin="round"/>
<path d="M171.542 130.225V130.277" stroke="white" stroke-width="8" stroke-linecap="round" stroke-linejoin="round"/>
<path d="M192.202 130.225V130.277" stroke="white" stroke-width="8" stroke-linecap="round" stroke-linejoin="round"/>
<path d="M130.22 150.886V150.938" stroke="white" stroke-width="8" stroke-linecap="round" stroke-linejoin="round"/>
<path d="M130.22 171.547V171.599" stroke="white" stroke-width="8" stroke-linecap="round" stroke-linejoin="round"/>
<path d="M130.22 192.208V192.26" stroke="white" stroke-width="8" stroke-linecap="round" stroke-linejoin="round"/>
<path d="M206.75 146H155.75C152.368 146 149.125 147.343 146.734 149.734C144.343 152.125 143 155.368 143 158.75V209.75C143 213.132 144.343 216.375 146.734 218.766C149.125 221.157 152.368 222.5 155.75 222.5H206.75C210.132 222.5 213.375 221.157 215.766 218.766C218.157 216.375 219.5 213.132 219.5 209.75V158.75C219.5 155.368 218.157 152.125 215.766 149.734C213.375 147.343 210.132 146 206.75 146ZM164.25 163C165.511 163 166.743 163.374 167.792 164.074C168.84 164.775 169.657 165.771 170.14 166.935C170.622 168.1 170.748 169.382 170.503 170.619C170.257 171.855 169.649 172.991 168.758 173.883C167.866 174.774 166.73 175.382 165.494 175.628C164.257 175.873 162.975 175.747 161.81 175.265C160.646 174.782 159.65 173.965 158.949 172.917C158.249 171.868 157.875 170.636 157.875 169.375C157.875 167.684 158.547 166.063 159.742 164.867C160.938 163.672 162.559 163 164.25 163V163ZM211 209.027C211.094 210.25 210.699 211.46 209.903 212.392C209.106 213.324 207.972 213.902 206.75 214H155.75L187.922 185.015C188.463 184.522 189.168 184.249 189.899 184.249C190.63 184.249 191.335 184.522 191.875 185.015L211 204.055V209.027Z" fill="white"/>
<g filter="url(#filter0_d_329:3504)">
<path d="M190.773 206L235.423 226.188L213.811 234.342L201.413 253.833L190.773 206Z" fill="#C4C4C4"/>
<path d="M190.773 206L235.423 226.188L213.811 234.342L201.413 253.833L190.773 206Z" stroke="white" stroke-width="4" stroke-linecap="round" stroke-linejoin="round"/>
</g>
<path d="M193.75 24H142.75C139.368 24 136.125 25.3433 133.734 27.7344C131.343 30.1255 130 33.3685 130 36.75V87.75C130 91.1315 131.343 94.3745 133.734 96.7656C136.125 99.1567 139.368 100.5 142.75 100.5H193.75C197.132 100.5 200.375 99.1567 202.766 96.7656C205.157 94.3745 206.5 91.1315 206.5 87.75V36.75C206.5 33.3685 205.157 30.1255 202.766 27.7344C200.375 25.3433 197.132 24 193.75 24ZM151.25 41C152.511 41 153.743 41.3739 154.792 42.0744C155.84 42.7749 156.657 43.7705 157.14 44.9354C157.622 46.1003 157.748 47.3821 157.503 48.6187C157.257 49.8553 156.649 50.9912 155.758 51.8828C154.866 52.7744 153.73 53.3815 152.494 53.6275C151.257 53.8735 149.975 53.7472 148.81 53.2647C147.646 52.7822 146.65 51.9651 145.949 50.9168C145.249 49.8684 144.875 48.6359 144.875 47.375C144.875 45.6842 145.547 44.0627 146.742 42.8672C147.938 41.6716 149.559 41 151.25 41V41ZM198 87.0275C198.094 88.25 197.699 89.46 196.903 90.392C196.106 91.3241 194.972 91.9024 193.75 92H142.75L174.922 63.015C175.463 62.5222 176.168 62.2491 176.899 62.2491C177.63 62.2491 178.335 62.5222 178.875 63.015L198 82.055V87.0275Z" fill="white"/>
<path d="M90.75 24H39.75C36.3685 24 33.1255 25.3433 30.7344 27.7344C28.3433 30.1255 27 33.3685 27 36.75V87.75C27 91.1315 28.3433 94.3745 30.7344 96.7656C33.1255 99.1567 36.3685 100.5 39.75 100.5H90.75C94.1315 100.5 97.3745 99.1567 99.7656 96.7656C102.157 94.3745 103.5 91.1315 103.5 87.75V36.75C103.5 33.3685 102.157 30.1255 99.7656 27.7344C97.3745 25.3433 94.1315 24 90.75 24ZM48.25 41C49.5109 41 50.7434 41.3739 51.7918 42.0744C52.8401 42.7749 53.6572 43.7705 54.1397 44.9354C54.6222 46.1003 54.7485 47.3821 54.5025 48.6187C54.2565 49.8553 53.6494 50.9912 52.7578 51.8828C51.8662 52.7744 50.7303 53.3815 49.4937 53.6275C48.2571 53.8735 46.9753 53.7472 45.8104 53.2647C44.6455 52.7822 43.6499 51.9651 42.9494 50.9168C42.2489 49.8684 41.875 48.6359 41.875 47.375C41.875 45.6842 42.5466 44.0627 43.7422 42.8672C44.9377 41.6716 46.5592 41 48.25 41V41ZM95 87.0275C95.0939 88.25 94.6993 89.46 93.9026 90.392C93.1059 91.3241 91.9723 91.9024 90.75 92H39.75L71.9225 63.015C72.4627 62.5222 73.1675 62.2491 73.8987 62.2491C74.63 62.2491 75.3348 62.5222 75.875 63.015L95 82.055V87.0275Z" fill="white"/>
<path d="M90.75 130H39.75C36.3685 130 33.1255 131.343 30.7344 133.734C28.3433 136.125 27 139.368 27 142.75V193.75C27 197.132 28.3433 200.375 30.7344 202.766C33.1255 205.157 36.3685 206.5 39.75 206.5H90.75C94.1315 206.5 97.3745 205.157 99.7656 202.766C102.157 200.375 103.5 197.132 103.5 193.75V142.75C103.5 139.368 102.157 136.125 99.7656 133.734C97.3745 131.343 94.1315 130 90.75 130ZM48.25 147C49.5109 147 50.7434 147.374 51.7918 148.074C52.8401 148.775 53.6572 149.771 54.1397 150.935C54.6222 152.1 54.7485 153.382 54.5025 154.619C54.2565 155.855 53.6494 156.991 52.7578 157.883C51.8662 158.774 50.7303 159.382 49.4937 159.628C48.2571 159.873 46.9753 159.747 45.8104 159.265C44.6455 158.782 43.6499 157.965 42.9494 156.917C42.2489 155.868 41.875 154.636 41.875 153.375C41.875 151.684 42.5466 150.063 43.7422 148.867C44.9377 147.672 46.5592 147 48.25 147V147ZM95 193.027C95.0939 194.25 94.6993 195.46 93.9026 196.392C93.1059 197.324 91.9723 197.902 90.75 198H39.75L71.9225 169.015C72.4627 168.522 73.1675 168.249 73.8987 168.249C74.63 168.249 75.3348 168.522 75.875 169.015L95 188.055V193.027Z" fill="white"/>
<path d="M90.75 232H39.75C36.3685 232 33.1255 233.343 30.7344 235.734C28.3433 238.125 27 241.368 27 244.75V295.75C27 299.132 28.3433 302.375 30.7344 304.766C33.1255 307.157 36.3685 308.5 39.75 308.5H90.75C94.1315 308.5 97.3745 307.157 99.7656 304.766C102.157 302.375 103.5 299.132 103.5 295.75V244.75C103.5 241.368 102.157 238.125 99.7656 235.734C97.3745 233.343 94.1315 232 90.75 232ZM48.25 249C49.5109 249 50.7434 249.374 51.7918 250.074C52.8401 250.775 53.6572 251.771 54.1397 252.935C54.6222 254.1 54.7485 255.382 54.5025 256.619C54.2565 257.855 53.6494 258.991 52.7578 259.883C51.8662 260.774 50.7303 261.382 49.4937 261.628C48.2571 261.873 46.9753 261.747 45.8104 261.265C44.6455 260.782 43.6499 259.965 42.9494 258.917C42.2489 257.868 41.875 256.636 41.875 255.375C41.875 253.684 42.5466 252.063 43.7422 250.867C44.9377 249.672 46.5592 249 48.25 249V249ZM95 295.027C95.0939 296.25 94.6993 297.46 93.9026 298.392C93.1059 299.324 91.9723 299.902 90.75 300H39.75L71.9225 271.015C72.4627 270.522 73.1675 270.249 73.8987 270.249C74.63 270.249 75.3348 270.522 75.875 271.015L95 290.055V295.027Z" fill="white"/>
<path d="M304.75 24H253.75C250.368 24 247.125 25.3433 244.734 27.7344C242.343 30.1255 241 33.3685 241 36.75V87.75C241 91.1315 242.343 94.3745 244.734 96.7656C247.125 99.1567 250.368 100.5 253.75 100.5H304.75C308.132 100.5 311.375 99.1567 313.766 96.7656C316.157 94.3745 317.5 91.1315 317.5 87.75V36.75C317.5 33.3685 316.157 30.1255 313.766 27.7344C311.375 25.3433 308.132 24 304.75 24ZM262.25 41C263.511 41 264.743 41.3739 265.792 42.0744C266.84 42.7749 267.657 43.7705 268.14 44.9354C268.622 46.1003 268.748 47.3821 268.503 48.6187C268.257 49.8553 267.649 50.9912 266.758 51.8828C265.866 52.7744 264.73 53.3815 263.494 53.6275C262.257 53.8735 260.975 53.7472 259.81 53.2647C258.646 52.7822 257.65 51.9651 256.949 50.9168C256.249 49.8684 255.875 48.6359 255.875 47.375C255.875 45.6842 256.547 44.0627 257.742 42.8672C258.938 41.6716 260.559 41 262.25 41V41ZM309 87.0275C309.094 88.25 308.699 89.46 307.903 90.392C307.106 91.3241 305.972 91.9024 304.75 92H253.75L285.922 63.015C286.463 62.5222 287.168 62.2491 287.899 62.2491C288.63 62.2491 289.335 62.5222 289.875 63.015L309 82.055V87.0275Z" fill="white"/>
<defs>
<filter id="filter0_d_329:3504" x="184.773" y="204" width="56.6504" height="59.8326" filterUnits="userSpaceOnUse" color-interpolation-filters="sRGB">
<feFlood flood-opacity="0" result="BackgroundImageFix"/>
<feColorMatrix in="SourceAlpha" type="matrix" values="0 0 0 0 0 0 0 0 0 0 0 0 0 0 0 0 0 0 127 0" result="hardAlpha"/>
<feOffset dy="4"/>
<feGaussianBlur stdDeviation="2"/>
<feComposite in2="hardAlpha" operator="out"/>
<feColorMatrix type="matrix" values="0 0 0 0 0 0 0 0 0 0 0 0 0 0 0 0 0 0 0.25 0"/>
<feBlend mode="normal" in2="BackgroundImageFix" result="effect1_dropShadow_329:3504"/>
<feBlend mode="normal" in="SourceGraphic" in2="effect1_dropShadow_329:3504" result="shape"/>
</filter>
</defs>
</svg>
