<svg width="613" height="613" viewBox="0 0 613 613" fill="none" xmlns="http://www.w3.org/2000/svg">
<rect x="0.5" width="612.5" height="612.5" fill="#223164"/>
<g filter="url(#filter0_d_410_2958)">
<path d="M391.643 373.609L521.019 432.219L458.395 455.892L422.472 512.479L391.643 373.609Z" fill="#8EE3C8"/>
<path d="M391.643 373.609L521.019 432.219L458.395 455.892L422.472 512.479L391.643 373.609Z" stroke="white" stroke-width="4" stroke-linecap="round" stroke-linejoin="round"/>
</g>
<rect x="81.8806" y="331.664" width="205.895" height="370.61" rx="5" transform="rotate(-90 81.8806 331.664)" fill="#FD8A8A"/>
<rect x="116.251" y="361.258" width="205.895" height="370.61" rx="5" transform="rotate(-90 116.251 361.258)" fill="white"/>
<path d="M518.13 306.333H305.758C301.734 306.333 297.876 304.727 295.031 301.869C292.186 299.01 290.588 295.133 290.588 291.09C290.588 287.048 292.186 283.171 295.031 280.312C297.876 277.454 301.734 275.848 305.758 275.848H518.13C522.153 275.848 526.011 277.454 528.856 280.312C531.701 283.171 533.299 287.048 533.299 291.09C533.299 295.133 531.701 299.01 528.856 301.869C526.011 304.727 522.153 306.333 518.13 306.333Z" fill="#CCCCCC"/>
<path d="M385.602 241.849H305.79C301.759 241.849 297.892 240.243 295.041 237.384C292.19 234.526 290.588 230.649 290.588 226.606C290.588 222.563 292.19 218.686 295.041 215.828C297.892 212.969 301.759 211.363 305.79 211.363H385.602C389.634 211.363 393.501 212.969 396.352 215.828C399.203 218.686 400.805 222.563 400.805 226.606C400.805 230.649 399.203 234.526 396.352 237.384C393.501 240.243 389.634 241.849 385.602 241.849Z" fill="#CCCCCC"/>
<rect x="147.542" y="216.062" width="126.632" height="126.632" fill="#FB6979"/>
<defs>
<filter id="filter0_d_410_2958" x="385.643" y="371.609" width="141.376" height="150.869" filterUnits="userSpaceOnUse" color-interpolation-filters="sRGB">
<feFlood flood-opacity="0" result="BackgroundImageFix"/>
<feColorMatrix in="SourceAlpha" type="matrix" values="0 0 0 0 0 0 0 0 0 0 0 0 0 0 0 0 0 0 127 0" result="hardAlpha"/>
<feOffset dy="4"/>
<feGaussianBlur stdDeviation="2"/>
<feComposite in2="hardAlpha" operator="out"/>
<feColorMatrix type="matrix" values="0 0 0 0 0 0 0 0 0 0 0 0 0 0 0 0 0 0 0.25 0"/>
<feBlend mode="normal" in2="BackgroundImageFix" result="effect1_dropShadow_410_2958"/>
<feBlend mode="normal" in="SourceGraphic" in2="effect1_dropShadow_410_2958" result="shape"/>
</filter>
</defs>
</svg>
