<svg width="385" height="268" viewBox="0 0 385 268" fill="none" xmlns="http://www.w3.org/2000/svg">
<rect rx="10" width="385" height="268" fill="#121E49"/>
<g opacity="0.1">
<path opacity="0.1" d="M112.613 255.449C112.316 254.75 111.888 254.235 111.321 254.087C110.753 253.938 110.109 254.176 109.497 254.652C109.137 254.939 108.811 255.266 108.525 255.628C108.334 255.865 108.157 256.112 107.993 256.368C107.806 256.661 107.636 256.965 107.485 257.279C107.279 257.698 107.114 258.137 106.992 258.588C106.965 258.689 106.941 258.79 106.923 258.885C106.871 259.128 106.843 259.375 106.837 259.623C106.813 261.11 107.838 261.824 109.182 262.178C110.525 262.532 111.793 262.431 112.509 261.069C112.63 260.844 112.73 260.607 112.807 260.364C112.827 260.292 112.851 260.218 112.869 260.141C112.978 259.709 113.048 259.267 113.077 258.823C113.098 258.525 113.107 258.228 113.101 257.93C113.09 257.495 113.045 257.061 112.967 256.633C112.892 256.227 112.773 255.83 112.613 255.449Z" fill="url(#paint0_linear_15_381)"/>
</g>
<g opacity="0.1">
<path opacity="0.1" d="M215.117 209.867C215.025 209.678 214.916 209.498 214.791 209.329L214.675 209.177C214.444 208.893 214.189 208.63 213.911 208.392C213.73 208.234 213.537 208.094 213.338 207.942C213.044 207.735 212.735 207.551 212.413 207.392C212.105 207.238 211.782 207.117 211.448 207.032C210.854 206.883 210.286 206.916 209.909 207.22C209.531 207.523 209.371 208.07 209.386 208.707C209.399 209.087 209.456 209.464 209.555 209.832C209.618 210.075 209.695 210.314 209.784 210.549C209.886 210.817 210.004 211.079 210.137 211.334C210.314 211.677 210.523 212.003 210.761 212.307C210.815 212.375 210.871 212.438 210.925 212.5C211.06 212.654 211.209 212.794 211.371 212.92C212.354 213.675 213.323 213.336 214.217 212.622C215.112 211.908 215.67 211.013 215.117 209.867Z" fill="url(#paint1_linear_15_381)"/>
</g>
<g opacity="0.1">
<path opacity="0.1" d="M97.8635 231.489L94.1938 229.038C95.101 230.251 96.3962 231.116 97.8635 231.489V231.489Z" fill="url(#paint2_linear_15_381)"/>
</g>
<path d="M132.272 120.488L125.284 122.083L122.152 122.571C120.958 122.768 119.736 122.724 118.56 122.441C117.383 122.159 116.275 121.643 115.3 120.926C112.836 119.066 110.967 115.672 114.836 109.776C121.872 99.0659 123.706 95.383 118.812 91.4025C117.92 90.6647 116.871 89.915 115.781 89.204C117.175 88.8262 118.544 88.3116 119.519 87.2703C120.235 86.5058 120.669 85.527 121.091 84.5691L124.11 77.694C124.954 75.7722 125.809 73.8028 125.949 71.7114C125.97 71.3872 125.97 71.0599 125.949 70.7357C125.997 69.0578 125.616 67.3918 125.233 65.7526L123.51 58.3927C123.317 57.3577 122.977 56.3558 122.499 55.4177C122.02 54.6565 121.449 53.9571 120.8 53.3353L117.876 50.286C114.013 46.2579 109.476 41.9324 103.91 42.0008C101.967 42.0246 100.08 42.5958 98.2231 43.167L90.3964 45.5201C89.2079 45.8801 88.0193 46.2609 87.0684 47.0582C84.9885 48.8431 84.9112 52.0174 83.4315 54.314C81.512 57.289 77.2272 58.8627 76.8707 62.388C76.8498 62.6394 76.8498 62.8922 76.8707 63.1436C76.7102 65.5236 78.496 67.6864 78.6535 70.0514C78.5643 71.5181 77.8096 72.9341 77.9195 74.3859C77.8979 74.6606 77.9049 74.9367 77.9403 75.21C78.0354 75.9031 78.3355 76.5606 78.4098 77.2537C78.2969 78.3812 77.5659 79.3362 76.8172 80.312C72.0481 80.7344 67.493 82.5491 66.3609 86.6218C64.8306 92.1343 46.9369 112.504 46.9369 112.504L42.6551 114.661C42.6551 114.661 31.6431 105.168 31.031 112.822C30.4189 120.477 38.9825 128.134 46.3248 124.154C46.3248 124.154 54.2851 121.497 60.9559 119.319C62.5008 118.815 63.9125 117.97 65.0864 116.845C66.2602 115.72 67.166 114.345 67.7366 112.822L68.7498 122.955C68.7498 122.955 58.7957 134.004 56.9445 152.543C56.7573 154.406 56.6474 156.348 56.6474 158.359C56.5927 164.604 57.4424 170.824 59.1701 176.825L72.3215 179.276C72.3215 179.276 72.574 179.33 73.0227 179.41C76.1605 185.131 79.9668 192.553 79.9668 194.894C79.9668 194.894 83.6365 203.468 82.7183 206.839C81.8269 210.144 77.0905 218.762 79.2299 230.085L76.2912 255.94L82.6946 257.493L82.7183 257.674H83.4493L83.7256 257.74L83.7435 257.674H90.0874L90.7441 258.225C90.7173 258.034 90.6846 257.853 90.649 257.674H90.6727C90.7484 255.351 91.2679 253.064 92.203 250.936C92.203 250.936 91.3116 240.101 92.5299 230.005C93.9858 226.331 95.7301 222.924 97.7744 220.5L104.519 209.531C104.519 209.531 109.357 201.627 107.975 191.887C107.896 191.293 107.909 190.691 108.014 190.102C108.044 189.932 108.014 189.902 108.014 189.902C108.014 189.902 108.24 179.211 107.464 173.151C109.88 170.384 112.397 169.483 112.397 169.483C112.397 169.483 112.346 169.307 112.254 168.992C112.444 168.908 112.551 168.87 112.551 168.87C112.551 168.87 106.433 147.432 100.621 145.29C100.621 145.29 98.3657 136.256 99.6642 130.416C99.846 129.73 100.116 129.071 100.466 128.455L100.651 128.226C101.382 129.678 104.303 134.771 109.033 133.968C114.539 133.049 127.69 129.375 127.69 129.375C127.69 129.375 127.655 129.14 127.607 128.756C129.666 128.253 132.516 127.658 133.808 127.842C135.951 128.14 146.654 123.249 144.505 117.728C142.357 112.206 132.272 120.488 132.272 120.488Z" fill="url(#paint3_linear_15_381)"/>
<path opacity="0.3" d="M210.182 205.646C209.19 206.158 207.977 206.958 207.404 208.026C207.308 207.669 207.253 207.303 207.24 206.934C207.745 206.216 208.438 205.652 209.243 205.304C209.567 205.384 209.882 205.498 210.182 205.646V205.646Z" fill="white"/>
<path d="M124.906 122.934L131.696 121.381C131.696 121.381 141.501 113.349 143.581 118.703C145.661 124.058 135.261 128.818 133.181 128.521C131.101 128.223 124.862 130.008 124.862 130.008L124.906 122.934Z" fill="#FCC1CB"/>
<path d="M112.679 67.2401H87.1249V92.8245H112.679V67.2401Z" fill="#855A61"/>
<path opacity="0.15" d="M112.679 67.2401H87.1249V92.8245H112.679V67.2401Z" fill="black"/>
<path d="M83.8385 169.155C83.8385 169.155 89.9685 189.313 89.0593 193.074C89.0593 193.074 90.5657 201.999 88.9315 204.973C87.2972 207.948 80.6473 215.207 80.2996 226.756L77.3282 252.971L84.5487 254.723C85.1475 252.546 86.1572 250.505 87.5231 248.708C87.5231 248.708 90.8956 227.181 98.1844 218.542L104.736 207.886C104.736 207.886 109.434 200.208 108.094 190.747C108.016 190.169 108.028 189.582 108.13 189.007C108.156 188.843 108.13 188.814 108.13 188.814C108.13 188.814 108.451 173.588 106.98 169.557C105.509 165.526 83.8385 169.155 83.8385 169.155Z" fill="#FCC1CB"/>
<path opacity="0.05" d="M83.8385 169.155C83.8385 169.155 89.9685 189.313 89.0593 193.074C89.0593 193.074 90.5657 201.999 88.9315 204.973C87.2972 207.948 80.6473 215.207 80.2996 226.756L77.3282 252.971L84.5487 254.723C85.1475 252.546 86.1572 250.505 87.5231 248.708C87.5231 248.708 90.8956 227.181 98.1844 218.542L104.736 207.886C104.736 207.886 109.434 200.208 108.094 190.747C108.016 190.169 108.028 189.582 108.13 189.007C108.156 188.843 108.13 188.814 108.13 188.814C108.13 188.814 108.451 173.588 106.98 169.557C105.509 165.526 83.8385 169.155 83.8385 169.155Z" fill="black"/>
<path opacity="0.1" d="M70.4851 171.657C70.4851 171.657 81.1821 189.804 81.1821 193.672C81.1821 193.672 84.7478 202.002 83.8564 205.274C82.9649 208.546 78.2107 217.174 80.5878 228.478L83.8564 254.658H91.2848C91.3583 252.401 91.8626 250.18 92.7705 248.113C92.7705 248.113 90.9877 226.396 96.0391 216.281L99.9019 204.381C99.9019 204.381 102.716 195.647 99.0342 186.681C98.8216 186.161 98.7126 185.606 98.7133 185.044V185.044C98.7133 185.044 95.4448 170.17 93.0677 166.6C90.6906 163.03 70.4851 171.657 70.4851 171.657Z" fill="black"/>
<path d="M70.188 171.657C70.188 171.657 80.885 189.804 80.885 193.672C80.885 193.672 84.4506 202.002 83.5592 205.274C82.6678 208.546 77.9136 217.174 80.2907 228.478L83.5592 254.658H90.9877C91.0611 252.401 91.5654 250.18 92.4734 248.113C92.4734 248.113 90.6905 226.396 95.7419 216.281L99.6047 204.381C99.6047 204.381 102.419 195.647 98.7371 186.681C98.5244 186.161 98.4154 185.606 98.4161 185.044V185.044C98.4161 185.044 95.1476 170.17 92.7705 166.6C90.3934 163.03 70.188 171.657 70.188 171.657Z" fill="#FCC1CB"/>
<path d="M107.033 75.567C107.033 75.567 104.062 86.5742 105.548 89.8466C107.033 93.1191 100.793 104.424 100.793 104.424L92.1763 82.4093C94.0479 79.3928 94.6865 75.7702 93.9591 72.2946L107.033 75.567Z" fill="#FCC1CB"/>
<path d="M92.3248 82.561C92.3248 82.561 88.6105 83.0073 82.6678 82.4123C76.725 81.8173 69.1479 83.156 67.6622 88.5109C66.1765 93.8658 48.7939 113.649 48.7939 113.649L44.634 115.732C44.634 115.732 46.4168 120.789 48.1996 124.954C48.1996 124.954 55.9253 122.372 62.4148 120.259C63.9155 119.769 65.2867 118.947 66.4266 117.853C67.5665 116.76 68.4459 115.424 68.9994 113.944L70.1879 125.843L97.5247 130.901L100.793 128.521C100.793 128.521 103.765 135.363 109.113 134.471C114.462 133.578 127.239 130.008 127.239 130.008C127.239 130.008 126.347 124.058 127.239 122.571L121.863 123.398C120.704 123.589 119.517 123.546 118.374 123.272C117.231 122.998 116.155 122.497 115.207 121.8C112.813 119.992 111 116.695 114.759 110.969C121.593 100.556 123.376 96.9865 118.622 93.1191C113.867 89.2516 105.399 85.2355 105.399 85.2355L100.793 100.259L92.3248 82.561Z" fill="#EB7580"/>
<path opacity="0.1" d="M85.9363 81.8143L80.2402 82.8645C80.2402 82.8645 93.9591 111.861 85.9363 128.521C85.9363 128.521 73.3436 127.381 69.9829 124.383C69.9829 124.383 51.7654 144.585 60.6795 176.12L73.4565 178.5C73.4565 178.5 83.5592 180.582 88.3134 178.5C93.0676 176.417 96.3362 177.905 96.3362 177.905C96.3362 177.905 102.873 180.582 105.547 175.525C108.222 170.467 112.382 168.98 112.382 168.98C112.382 168.98 106.439 148.155 100.793 146.073C100.793 146.073 97.8219 134.173 100.793 129.116L101.982 127.628C101.982 127.628 111.49 123.761 110.005 110.076L109.707 86.2767L107.033 85.6817C107.033 85.6817 108.222 110.969 100.793 108.886C93.3648 106.804 85.9363 81.8143 85.9363 81.8143Z" fill="black"/>
<path d="M112.382 168.385C112.382 168.385 108.222 169.872 105.548 174.93C102.873 179.987 96.3362 177.31 96.3362 177.31C96.3362 177.31 93.0677 175.822 88.3134 177.905C83.5592 179.987 73.4565 177.905 73.4565 177.905L60.6795 175.525C59.8473 172.597 59.2188 169.615 58.7986 166.6C58.4752 164.265 58.2877 161.912 58.2371 159.555C58.1868 157.21 58.2791 154.865 58.5134 152.531C60.3141 134.515 69.9829 123.788 69.9829 123.788L70.0572 123.85C70.191 123.965 70.3308 124.072 70.4762 124.171C70.6159 124.27 70.7734 124.362 70.9279 124.454C75.2304 126.959 85.9363 127.926 85.9363 127.926C93.9591 111.266 80.2402 82.2694 80.2402 82.2694L85.9363 81.2193C85.9363 81.2193 93.3648 106.209 100.793 108.291C108.222 110.374 107.033 85.0867 107.033 85.0867L109.707 85.6817L110.005 109.481C111.49 123.166 101.982 127.033 101.982 127.033L100.793 128.521C97.8219 133.578 100.793 145.478 100.793 145.478C106.439 147.56 112.382 168.385 112.382 168.385Z" fill="#C3C7E1"/>
<path d="M44.634 115.729C44.634 115.729 33.937 106.506 33.3427 113.944C32.7484 121.381 41.0683 128.818 48.1997 124.951L44.634 115.729Z" fill="#FCC1CB"/>
<path opacity="0.1" d="M92.8716 81.0914C94.7596 82.2618 96.9197 82.9193 99.1389 82.9991C101.358 83.0789 103.56 82.5783 105.527 81.5466C106.07 78.6163 106.73 76.1649 106.73 76.1649L93.656 72.8925C94.2121 75.6429 93.939 78.4967 92.8716 81.0914V81.0914Z" fill="black"/>
<path opacity="0.1" d="M70.9308 96.2457C70.9308 96.2457 71.8222 101.898 68.8508 110.525Z" fill="black"/>
<path opacity="0.1" d="M74.1993 112.608C74.1993 112.608 79.5478 118.855 84.8963 120.343Z" fill="black"/>
<path opacity="0.1" d="M52.5082 112.608C52.5082 112.608 57.8567 112.905 61.1253 110.525C64.3938 108.145 65.5824 112.608 65.5824 112.608" fill="black"/>
<path opacity="0.1" d="M100.793 146.073C98.1042 146.418 95.4628 147.067 92.9191 148.007C89.0563 149.494 80.1421 148.304 79.5479 145.924" fill="black"/>
<g opacity="0.1">
<path opacity="0.1" d="M99.4562 108.291C99.9648 108.446 100.507 108.452 101.019 108.309L100.942 108.291C93.5134 106.209 86.0849 81.2193 86.0849 81.2193L84.6765 81.4781C85.4877 84.1288 92.4704 106.337 99.4562 108.291Z" fill="black"/>
<path opacity="0.1" d="M84.5992 127.926L84.6676 127.774C81.2802 127.375 72.7968 126.168 70.1315 123.788C70.1315 123.788 69.9295 124.014 69.5788 124.448C73.8725 126.959 84.5992 127.926 84.5992 127.926Z" fill="black"/>
<path opacity="0.1" d="M86.9763 177.905C85.559 178.526 83.6692 178.773 81.711 178.821C84.1713 178.88 86.6881 178.681 88.462 177.905C89.8036 177.302 91.2391 176.935 92.7052 176.822C90.7358 176.708 88.7688 177.08 86.9763 177.905Z" fill="black"/>
<path opacity="0.1" d="M100.942 145.478C100.942 145.478 97.9705 133.578 100.942 128.521L102.13 127.033C102.13 127.033 111.639 123.166 110.153 109.481L109.856 85.6817L107.182 85.0867C107.182 85.0867 107.182 85.2057 107.182 85.4199L108.37 85.6817L108.667 109.481C110.153 123.166 100.645 127.033 100.645 127.033L99.4562 128.521C96.4848 133.578 99.4562 145.478 99.4562 145.478C105.102 147.56 111.045 168.385 111.045 168.385C111.045 168.385 106.885 169.872 104.21 174.93C103.072 177.084 101.239 177.833 99.4948 177.985C101.575 178.154 104.222 177.717 105.696 174.93C108.37 169.872 112.53 168.385 112.53 168.385C112.53 168.385 106.588 147.56 100.942 145.478Z" fill="black"/>
</g>
<path d="M99.9019 82.4123C106.958 82.4123 112.679 76.685 112.679 69.6201C112.679 62.5551 106.958 56.8279 99.9019 56.8279C92.8454 56.8279 87.1249 62.5551 87.1249 69.6201C87.1249 76.685 92.8454 82.4123 99.9019 82.4123Z" fill="#FCC1CB"/>
<path opacity="0.1" d="M105.812 62.8848C106.305 62.5189 106.65 61.9001 107.25 61.7722C107.478 61.7442 107.709 61.7676 107.926 61.8407C108.144 61.9138 108.342 62.0347 108.507 62.1946C109.954 63.4173 109.939 65.6485 109.511 67.496C109.083 69.3434 108.358 71.2355 108.804 73.0769C108.974 73.7701 109.306 74.4424 109.256 75.1594C109.152 76.6469 107.446 77.6078 107.176 79.0863C106.905 80.5648 108.112 82.1416 107.414 83.4535C107.146 83.9563 106.644 84.2924 106.332 84.7714C105.093 86.6724 107.446 88.9006 107.791 91.1437C107.856 91.5661 107.865 92.0362 108.177 92.3337C108.546 92.6847 109.137 92.5865 109.63 92.4675L114.658 91.2508C116.343 90.8432 118.131 90.3791 119.317 89.1118C120.012 88.3711 120.434 87.4191 120.844 86.4879L123.774 79.8062C124.594 77.941 125.423 76.0281 125.557 73.9932C125.676 72.244 125.26 70.5066 124.873 68.802L123.201 61.6621C123.015 60.6531 122.684 59.6762 122.22 58.7616C121.755 58.0201 121.202 57.3387 120.571 56.7327L117.73 53.7577C113.968 49.8487 109.565 45.6481 104.145 45.7135C102.258 45.7373 100.425 46.3085 98.6182 46.847L91.0144 49.1734C89.8704 49.5244 88.6908 49.8933 87.7816 50.6608C85.764 52.3833 85.7016 55.4772 84.2486 57.7084C82.3855 60.6001 78.2226 62.1262 77.8749 65.5533C77.6194 68.0731 79.6964 70.346 79.6102 72.8776C79.5567 74.4157 78.701 75.8912 78.909 77.4174C79.007 78.1314 79.3339 78.8067 79.3785 79.5266C79.5003 81.5168 77.5481 82.9359 76.6329 84.7059C76.4101 85.0722 76.3179 85.5032 76.3714 85.9286C76.5021 86.5623 77.1232 86.955 77.7026 87.2346C80.0447 88.3704 82.6467 88.8612 85.241 88.6567C86.0748 88.6358 86.8885 88.3958 87.6003 87.9605C88.7383 87.1632 89.1335 85.6282 89.0474 84.2389C88.9612 82.8496 88.4887 81.5168 88.2629 80.1424C87.3061 74.3829 90.6697 68.8644 94.1017 64.1432C95.6528 62.0132 97.2306 60.6179 99.8692 61.4658C101.575 61.9864 104.005 64.2235 105.812 62.8848Z" fill="black"/>
<path d="M105.812 62.2899C106.305 61.9239 106.65 61.3052 107.25 61.1772C107.478 61.1492 107.709 61.1726 107.926 61.2457C108.144 61.3188 108.342 61.4398 108.507 61.5997C109.954 62.8224 109.939 65.0536 109.511 66.901C109.083 68.7484 108.358 70.6405 108.804 72.482C108.974 73.1751 109.306 73.8475 109.256 74.5644C109.152 76.0519 107.446 77.0128 107.176 78.4913C106.905 79.9699 108.112 81.5466 107.414 82.8585C107.146 83.3613 106.644 83.6975 106.332 84.1764C105.093 86.0774 107.446 88.3056 107.791 90.5487C107.856 90.9712 107.865 91.4412 108.177 91.7387C108.546 92.0897 109.137 91.9916 109.63 91.8726L114.658 90.6558C116.343 90.2483 118.131 89.7842 119.317 88.5169C120.012 87.7761 120.434 86.8241 120.844 85.893L123.774 79.2113C124.594 77.346 125.423 75.4331 125.557 73.3983C125.676 71.649 125.26 69.9116 124.873 68.207L123.201 61.0672C123.015 60.0581 122.684 59.0812 122.22 58.1666C121.755 57.4251 121.202 56.7437 120.571 56.1377L117.73 53.1628C113.968 49.2537 109.565 45.0531 104.145 45.1186C102.258 45.1424 100.425 45.7135 98.6182 46.252L91.0144 48.5784C89.8704 48.9294 88.6908 49.2983 87.7816 50.0659C85.764 51.7883 85.7016 54.8823 84.2486 57.1135C82.3855 60.0051 78.2226 61.5312 77.8749 64.9584C77.6194 67.4781 79.6964 69.751 79.6102 72.2827C79.5567 73.8207 78.701 75.2963 78.909 76.8224C79.007 77.5364 79.3339 78.2117 79.3785 78.9316C79.5003 80.9219 77.5481 82.3409 76.6329 84.111C76.4101 84.4772 76.3179 84.9082 76.3714 85.3337C76.5021 85.9673 77.1232 86.36 77.7026 86.6397C80.0447 87.7754 82.6467 88.2662 85.241 88.0617C86.0748 88.0409 86.8885 87.8008 87.6003 87.3656C88.7383 86.5683 89.1335 85.0332 89.0474 83.6439C88.9612 82.2546 88.4887 80.9219 88.2629 79.5474C87.3061 73.788 90.6697 68.2695 94.1017 63.5483C95.6528 61.4182 97.2306 60.023 99.8692 60.8708C101.575 61.3914 104.005 63.6286 105.812 62.2899Z" fill="#855A61"/>
<path opacity="0.1" d="M67.3651 137.3C64.156 145.21 61.0509 149.833 58.5134 152.534C60.314 134.518 69.9829 123.791 69.9829 123.791L70.0572 123.853C70.1701 127.607 69.4808 132.091 67.3651 137.3Z" fill="black"/>
<path opacity="0.1" d="M84.2753 249.264C84.2753 249.264 90.5866 249.535 91.3532 255.196Z" fill="black"/>
<path d="M133.33 122.55C133.33 122.55 138.976 118.168 140.758 121.672C140.758 121.672 134.816 124.302 133.33 123.865V122.55Z" fill="#FCC1CB"/>
<rect x="182" y="157" width="78" height="78" rx="5" fill="#1794A0"/>
<rect x="273" y="43" width="78" height="135" rx="5" fill="#1794A0"/>
<rect x="161" y="30" width="92" height="93" rx="5" fill="#F0ADA7"/>
<rect x="144" y="46" width="92" height="92" rx="5" fill="#1794A0"/>
<defs>
<linearGradient id="paint0_linear_15_381" x1="106.837" y1="258.198" x2="113.095" y2="258.198" gradientUnits="userSpaceOnUse">
<stop stop-color="#808080" stop-opacity="0.25"/>
<stop offset="0.54" stop-color="#808080" stop-opacity="0.12"/>
<stop offset="1" stop-color="#808080" stop-opacity="0.1"/>
</linearGradient>
<linearGradient id="paint1_linear_15_381" x1="6127.02" y1="4209.98" x2="6246.37" y2="4209.98" gradientUnits="userSpaceOnUse">
<stop stop-color="#808080" stop-opacity="0.25"/>
<stop offset="0.54" stop-color="#808080" stop-opacity="0.12"/>
<stop offset="1" stop-color="#808080" stop-opacity="0.1"/>
</linearGradient>
<linearGradient id="paint2_linear_15_381" x1="2319.62" y1="1927.84" x2="2364.98" y2="1927.84" gradientUnits="userSpaceOnUse">
<stop stop-color="#808080" stop-opacity="0.25"/>
<stop offset="0.54" stop-color="#808080" stop-opacity="0.12"/>
<stop offset="1" stop-color="#808080" stop-opacity="0.1"/>
</linearGradient>
<linearGradient id="paint3_linear_15_381" x1="66625.9" y1="170209" x2="66625.9" y2="13030.6" gradientUnits="userSpaceOnUse">
<stop stop-color="#808080" stop-opacity="0.25"/>
<stop offset="0.54" stop-color="#808080" stop-opacity="0.12"/>
<stop offset="1" stop-color="#808080" stop-opacity="0.1"/>
</linearGradient>
</defs>
</svg>
