<svg width="385" height="268" viewBox="0 0 385 268" fill="none" xmlns="http://www.w3.org/2000/svg">
<rect rx="10" width="385" height="268" fill="#121E49"/>
<path d="M297.291 136.452C274.467 137.882 254.851 119.794 253.476 96.0515C252.102 72.309 269.49 51.903 292.314 50.4732C315.138 49.0435 334.755 67.1315 336.129 90.8739C337.504 114.616 320.115 135.022 297.291 136.452Z" fill="#1794A0"/>
<path d="M303.033 126.808L315.588 126.022L316.943 149.421L304.388 150.207L303.033 126.808Z" fill="#1794A0"/>
<path d="M277.924 128.381L290.479 127.594L291.833 150.994L279.278 151.78L277.924 128.381Z" fill="#1794A0"/>
<path d="M298.356 158.365C297.344 156.367 300.676 152.472 305.797 149.665C310.919 146.859 315.891 146.203 316.902 148.201C317.914 150.199 314.583 154.093 309.461 156.9C304.34 159.707 299.368 160.363 298.356 158.365Z" fill="#1794A0"/>
<path d="M274.253 158.596C273.189 156.628 276.418 152.64 281.464 149.689C286.509 146.738 291.462 145.942 292.526 147.91C293.59 149.879 290.362 153.866 285.316 156.817C280.27 159.768 275.317 160.565 274.253 158.596Z" fill="#1794A0"/>
<path d="M332.577 50.9726C335.014 35.2179 323.437 20.178 306.721 17.3798C290.004 14.5817 274.476 25.085 272.039 40.8397C269.602 56.5944 280.866 61.6431 297.583 64.4412C314.3 67.2393 330.14 66.7273 332.577 50.9726Z" fill="#6BB2CC"/>
<path d="M249.182 77.4668C239.693 68.7101 234.142 59.0993 236.785 56.0004C239.428 52.9016 249.262 57.4881 258.752 66.2448C268.241 75.0015 273.791 84.6122 271.149 87.7111C268.506 90.8099 258.671 86.2234 249.182 77.4668Z" fill="#1794A0"/>
<path d="M329.755 109.108C325.77 96.5809 325.604 85.3705 329.385 84.0692C333.165 82.7678 339.46 91.8683 343.445 104.396C347.43 116.923 347.596 128.134 343.816 129.435C340.035 130.736 333.74 121.636 329.755 109.108Z" fill="#1794A0"/>
<rect x="67" y="186" width="29" height="67" rx="5" fill="#FFC052"/>
<rect x="116" y="144" width="29" height="109" rx="5" fill="#FFC052"/>
<rect x="165" y="165" width="29" height="87" rx="5" fill="#FFC052"/>
<rect x="212" y="93" width="29" height="159" rx="5" fill="#FFC052"/>
<rect x="128.851" y="116" width="5" height="69.3291" rx="2.5" transform="rotate(47.1788 128.851 116)" fill="#F9C770"/>
<rect x="222.271" y="53" width="5" height="101.205" rx="2.5" transform="rotate(27.8451 222.271 53)" fill="#F9C770"/>
<rect x="124" y="122.625" width="5" height="57.218" rx="2.5" transform="rotate(-67.6839 124 122.625)" fill="#F9C770"/>
<circle cx="81.9635" cy="165.489" r="7" transform="rotate(-19.8847 81.9635 165.489)" fill="#F9C770"/>
<circle cx="129" cy="120" r="7" fill="#F9C770"/>
<circle cx="179" cy="142" r="7" fill="#F9C770"/>
<circle cx="225" cy="56" r="7" fill="#F9C770"/>
</svg>
